<svg xmlns="http://www.w3.org/2000/svg" width="400" height="400"><svg id="SvgjsSvg1006" version="1.1" xmlns="http://www.w3.org/2000/svg" xmlns:xlink="http://www.w3.org/1999/xlink" width="400" height="400" viewBox="0 0 400 400"><g id="SvgjsG1005"><path id="SvgjsPath1004" d="M12.8 8.263c-.33.11-.845.278-1.145.373-.46.146-.46.278 0 .846.448.553.45.614.007.347-.388-.233-.499-.115-.396.424.12.627.69.8 3.539 1.077 3.355.326 4.795.962 4.795 2.118 0 1.11 2.365 1.599 13.4 2.77 3.3.35 6.81.893 7.8 1.207.99.314 4.41.932 7.6 1.374 3.19.442 7.218 1.17 8.951 1.618 1.732.448 6.502 1.257 10.6 1.797 4.097.541 8.439 1.251 9.649 1.578 1.21.327 4.09.785 6.4 1.018 5.64.567 8.54 1.014 14 2.158 2.53.529 7.032 1.253 10.005 1.609 2.973.355 6.812.988 8.531 1.407 1.719.42 5.586 1.056 8.595 1.415 3.008.358 6.459.895 7.669 1.193 1.21.297 4.36.832 7 1.187 10.723 1.445 13.478 1.87 14.411 2.225.537.204 4.355.834 8.483 1.399 4.128.565 8.946 1.375 10.706 1.8 1.76.425 6.35 1.141 10.2 1.591 3.85.451 7.99 1.08 9.2 1.398 1.21.319 5.17.957 8.8 1.419 3.63.462 7.95 1.169 9.6 1.573 1.65.403 4.44.929 6.2 1.168 10.23 1.39 12.329 1.717 13.227 2.058 1.317.501 4.987 1.062 10.373 1.586 2.42.235 5.84.782 7.6 1.216 1.76.434 6.53 1.236 10.6 1.783 4.07.547 8.39 1.259 9.6 1.582 1.21.322 5.17.963 8.8 1.424 3.63.46 7.68 1.097 9 1.414 1.32.317 5.91 1.025 10.2 1.573 10.2 1.304 11.186 1.594 12.158 3.573l.757 1.542-1.236 3.049c-.68 1.676-1.449 3.948-1.71 5.048-.261 1.1-.886 2.84-1.388 3.866-.503 1.026-1.295 3.255-1.761 4.953-.465 1.698-1.283 4.009-1.817 5.137-.533 1.128-1.257 3.292-1.609 4.808-.352 1.516-.969 3.405-1.371 4.197-.402.791-1.132 2.879-1.623 4.639-.491 1.76-1.21 3.83-1.599 4.6-.388.77-1.091 2.812-1.562 4.537-.472 1.726-1.136 3.677-1.477 4.337-.342.66-.975 2.578-1.407 4.263-.433 1.685-1.299 4.323-1.925 5.863-.626 1.54-1.502 3.97-1.945 5.4-.444 1.43-1.17 3.5-1.615 4.6-.898 2.224-2.338 6.52-4.048 12.08-.622 2.024-1.5 4.454-1.951 5.4-.451.946-1.114 2.877-1.475 4.291-.36 1.415-1.069 3.395-1.576 4.4-.506 1.006-1.22 3.155-1.585 4.775-.366 1.62-1.004 3.608-1.417 4.419-.414.81-1.201 3.022-1.749 4.914-.549 1.892-1.201 3.821-1.45 4.285-.249.465-1.697 4.621-3.219 9.236-1.522 4.615-2.962 8.755-3.201 9.201-.238.446-.981 2.653-1.649 4.904-.669 2.251-1.366 4.274-1.55 4.495-.184.221-.878 2.236-1.544 4.477-.666 2.242-1.47 4.582-1.787 5.199-.316.618-.959 2.532-1.429 4.253-.469 1.721-1.197 3.802-1.616 4.624-.42.822-1.059 2.654-1.422 4.071-.362 1.417-1.087 3.492-1.611 4.612-.525 1.119-1.225 3.336-1.556 4.927-.332 1.59-.956 3.464-1.387 4.164-.431.7-1.256 2.956-1.834 5.014-.577 2.057-1.299 4.127-1.604 4.6-.305.472-1.032 2.569-1.616 4.659-.584 2.09-1.211 3.98-1.393 4.2-.182.22-.819 2.11-1.417 4.2-.597 2.09-1.437 4.496-1.867 5.347-.429.85-1.126 2.864-1.548 4.475-.422 1.611-1.134 3.551-1.582 4.31-.448.759-1.236 3.082-1.751 5.162-.515 2.08-1.216 4.215-1.558 4.744-.342.529-.997 2.44-1.455 4.247-.458 1.807-1.187 3.886-1.621 4.621-.433.735-1.139 2.74-1.568 4.457-.429 1.716-1.227 4.046-1.774 5.179-.547 1.132-1.201 3.204-1.453 4.605-.252 1.401-.879 3.201-1.395 4-.515.799-1.254 2.955-1.641 4.79-.386 1.836-.942 3.577-1.235 3.87-.712.712-1.214 2.098-1.983 5.478-.352 1.549-.972 3.379-1.377 4.066-.405.687-1.113 2.863-1.573 4.836-.46 1.973-1.086 3.863-1.392 4.201-.76.84-1.394 2.596-1.879 5.205-.224 1.205-.829 2.915-1.346 3.8-.517.884-1.328 3.488-1.804 5.788-.475 2.3-1.291 5.147-1.813 6.327-.522 1.18-1.057 3.078-1.19 4.219-.259 2.223-.906 4.273-1.347 4.273-.658 0-1.232 2.949-1.232 6.328 0 2.02-.141 3.672-.314 3.672-.173 0-.315.36-.315.8 0 .925.253 1 1.008.3.44-.409.492-.368.284.221-.151.428-.093.621.142.476.487-.301.496.055.042 1.639-.273.953-.227 1.231.202 1.231.306 0 .533-.195.506-.434-.355-3.099.034-4.184 1.545-4.309l1.5-.124.117-3.1.117-3.1h2.766v-5.952l1.5-.124 1.5-.124.116-3.077.117-3.077 1.483-.123L217 363.8l.118-2.9c.116-2.87.128-2.9 1.22-2.9 1.682 0 2.062-.679 2.062-3.68 0-2.712.003-2.72 1.12-2.72 1.7 0 2.08-.672 2.08-3.68v-2.72h2.8v-5.952l1.5-.124 1.5-.124.117-3.1.117-3.1h3.166v-6.352l1.5-.124 1.5-.124.118-2.9c.116-2.87.128-2.9 1.22-2.9 1.682 0 2.062-.679 2.062-3.68V314h2.8v-5.952l1.5-.124 1.5-.124.116-3.077.117-3.077 1.483-.123 1.484-.123.116-3.077.117-3.077 1.483-.123L251.4 295l.118-2.9c.116-2.87.128-2.9 1.22-2.9 1.678 0 2.062-.68 2.062-3.656v-2.696l1.5-.124 1.5-.124.117-3.1.117-3.1h2.766v-5.952l1.5-.124 1.5-.124.116-3.077.117-3.077 1.483-.123L267 263.8l.118-2.9c.116-2.87.128-2.9 1.22-2.9 1.682 0 2.062-.679 2.062-3.68 0-2.712.003-2.72 1.12-2.72 1.7 0 2.08-.672 2.08-3.68v-2.72h2.8v-5.952l1.5-.124 1.5-.124.117-3.1.117-3.1h3.166v-6.352l1.5-.124 1.5-.124.118-2.9c.116-2.87.128-2.9 1.22-2.9 1.682 0 2.062-.679 2.062-3.68V214h2.8v-5.952l1.5-.124 1.5-.124.116-3.077.117-3.077 1.483-.123 1.484-.123.116-3.077.117-3.077 1.483-.123L301.4 195l.118-2.9c.116-2.87.128-2.9 1.22-2.9 1.678 0 2.062-.68 2.062-3.656v-2.696l1.5-.124 1.5-.124.117-3.1.117-3.1h2.766v-5.952l1.5-.124 1.5-.124.116-3.077.117-3.077 1.483-.123L317 163.8l.118-2.9c.116-2.87.128-2.9 1.22-2.9 1.682 0 2.062-.679 2.062-3.68 0-2.712.003-2.72 1.12-2.72 1.7 0 2.08-.672 2.08-3.68v-2.72h2.8v-5.952l1.5-.124 1.5-.124.117-3.1.117-3.1h3.166v-6.352l1.5-.124c1.643-.136 1.575.043 1.663-4.369.035-1.745.091-1.834 1.039-1.652 1.304.249 2.261-.573 2.179-1.871-.246-3.879-.069-4.432 1.419-4.432h1.4v-5.952l1.5-.124 1.5-.124.116-3.077.117-3.077 1.483-.123 1.484-.123.116-3.077.117-3.077 1.483-.123L351.4 95l.115-3.022.116-3.022 1.185.082c1.706.118 1.831-.184 1.946-4.714.036-1.409.106-1.481 1.538-1.6l1.5-.124.117-3.1.117-3.1h2.766v-5.952l1.5-.124 1.5-.124.116-3.077.117-3.077 1.483-.123L367 63.8l.115-3.022.116-3.022 1.185.082c1.717.119 1.838-.182 1.946-4.861.036-1.543.096-1.619 1.223-1.541.999.069 2.456-.825 2.115-1.297-.055-.077-.1-1.219-.1-2.539v-2.4h2.8v-5.952l1.5-.124 1.5-.124.117-3.1.117-3.1h3.166v-6.352l1.5-.124 1.5-.124.103-2.77c.119-3.179.018-2.938 1.304-3.114 1.584-.217 1.835-.553 1.939-2.593.053-1.057.269-1.984.48-2.058.916-.322 1.191-1.649.624-3.007-.598-1.432-1.65-2.481-1.182-1.179.143.397.135.61-.017.475-.534-.475-.631-2.119-.144-2.429.382-.242.375-.314-.031-.319-.288-.003-.422-.17-.298-.371.124-.201-.225-.315-.776-.255s-1.002-.045-1.002-.235c0-.358-372.928-.439-374-.082m370.54 5.95c-.124.323-.016.587.241.587.256 0 .35.188.208.418-.142.229-.042.677.221.994.264.318.391.809.282 1.092-.234.611-2.151.847-2.486.306-.324-.525 1.006-4.45 1.421-4.193.186.115.237.473.113.796m-3.093 6.487c-.1.605-.222 1.55-.271 2.1-.063.704-.166.527-.348-.6-.284-1.753-.144-2.6.428-2.6.204 0 .29.495.191 1.1M200.8 388.623l-2.2.513 2.233-.027c1.596-.02 2.234-.182 2.234-.569 0-.297-.015-.515-.034-.485-.018.031-1.023.286-2.233.568m2.8.026c0 .531.109.559.6.151.33-.274.6-.566.6-.649 0-.083-.27-.151-.6-.151-.33 0-.6.292-.6.649" stroke="none" fill="#23c88a" fill-rule="evenodd"/><path id="SvgjsPath1003" d="M11.407 15.4c.139 2.78.533 4.284 1.038 3.972.195-.121.355-.029.355.204 0 .233.135.403.3.377.825-.131 1.3.106 1.3.647 0 .33.18.6.4.6.22 0 .4.191.4.424 0 .233-.18.312-.4.176-.22-.136-.4-.057-.4.176 0 .233.155.424.345.424.189 0 .266.41.17.911-.19.992.921 2.277 2.121 2.453.574.084.718.545.773 2.47.079 2.758.422 3.742 1.334 3.827.361.033.837.103 1.057.154.22.051.557.113.749.139.192.025.17.271-.049.546-1.033 1.3.705 5.5 2.276 5.5.464 0 .661.377.682 1.3.068 3.026.521 4.062 2.139 4.898.948.491 1.12.801.993 1.798-.083.662.03 1.204.253 1.204.222 0 .298.172.168.382-.446.722.252 2.318 1.205 2.753 1.275.58 1.502.144 1.582-3.044.069-2.717.058-2.732-2.136-3.043-1.233-.175-2.275-.648-1.429-.648.202 0 .343-1.035.313-2.3-.081-3.452-.069-3.413-.927-3.189-1.463.383-2.059-.541-2.142-3.322-.075-2.521-.105-2.589-1.155-2.608-1.413-.024-2.88-1.308-2.297-2.011.954-1.15.277-4.368-.923-4.388-1.656-.027-2.08-.734-2.091-3.491L17.4 20.2l-1.2-.025c-.66-.014-1.785-.333-2.5-.71-1.305-.688-1.813-1.347-.713-.925.323.124.684.069.802-.122.118-.192-.236-.298-.787-.238-.77.084-1.002-.074-1.002-.684 0-.619.118-.696.537-.348.295.245.67.312.833.149.163-.164.417-.312.563-.331.147-.018.774-.243 1.393-.5 1.392-.576 1.848-.569 2.915.048 1.445.835 4.559 3.664 4.559 4.142 0 .923 1.459 2.216 2.81 2.491 1.02.207 1.424.518 1.518 1.169.146 1.01.868 1.47 2.874 1.831.923.166 1.801.731 2.57 1.653.698.837 1.528 1.4 2.065 1.4 1.419 0 2.196.435 2.58 1.446.265.694.964 1.115 2.711 1.63 1.67.492 2.525.989 2.938 1.709.393.682 1.189 1.176 2.429 1.505 1.173.312 1.932.765 2.084 1.244.233.735 2.421 1.905 4.021 2.151.475.073.852.488.928 1.02.152 1.068.889 1.505 3.17 1.883 1.299.215 1.862.56 2.396 1.463.384.65 1.15 1.281 1.702 1.403 2.061.453 2.293.584 2.731 1.545.332.728 1.069 1.166 2.841 1.689 1.828.538 2.447.915 2.617 1.594.159.635.708 1.02 1.917 1.345.931.251 2.359 1.058 3.172 1.792.813.735 2.125 1.457 2.916 1.606 1.011.189 1.607.596 2.007 1.37.43.83 1.162 1.285 2.983 1.853 1.717.535 2.414.95 2.417 1.438.003.778 1.153 1.514 2.363 1.514.447 0 1.442.629 2.211 1.397.841.842 2.119 1.591 3.213 1.883 1.236.331 1.816.699 1.816 1.154 0 .938.758 1.463 2.764 1.913.964.217 2.288.915 2.984 1.574.689.651 1.884 1.385 2.657 1.631.773.246 1.583.841 1.8 1.322.256.568 1.222 1.165 2.75 1.701 1.575.553 2.458 1.109 2.669 1.679.224.605.904.993 2.346 1.339 1.167.28 2.03.711 2.03 1.014 0 .668 2.207 2.024 3.863 2.373.881.187 1.335.556 1.502 1.224.186.741.748 1.117 2.486 1.665 1.358.428 2.484 1.071 2.848 1.626.362.553 1.312 1.098 2.386 1.368 1.21.305 1.918.746 2.203 1.371.416.912 2.867 2.166 4.232 2.166.407 0 .886.481 1.134 1.138.342.905.818 1.236 2.327 1.615 1.199.302 2.249.896 2.852 1.614.568.675 1.648 1.31 2.661 1.566 1.148.289 1.837.731 2.106 1.349.281.644 1.13 1.157 2.847 1.718 1.547.506 2.576 1.094 2.8 1.6.194.44 1.073 1.029 1.953 1.309.88.281 1.887.852 2.239 1.269.925 1.1 3.223 2.419 4.218 2.421.567 0 .937.322 1.095.95.18.719.832 1.172 2.678 1.862 1.342.502 2.648 1.245 2.901 1.651.254.406 1.292 1.013 2.307 1.351 1.171.389 2 .952 2.268 1.542.3.658 1.133 1.15 2.855 1.687 1.338.417 2.434.955 2.436 1.196.005.704 1.302 1.652 2.654 1.938.688.147 1.948.886 2.8 1.645.852.758 1.873 1.379 2.269 1.379.397 0 1.297.61 2 1.356.775.82 2.11 1.623 3.384 2.033 1.157.373 2.273.995 2.481 1.383.207.388 1.198 1.018 2.201 1.401 1.003.383 2.007 1.041 2.233 1.462.225.421.651.765.946.765.295 0 .752.258 1.014.574.262.316 1.004.69 1.649.832l1.172.258v24.919c0 20.158-.105 25.177-.547 26.268-.326.802-.65 3.78-.8 7.349-.139 3.3-.509 8.16-.821 10.8-.313 2.64-.718 9.3-.9 14.8-.183 5.5-.387 9.235-.455 8.3-.122-1.692-.131-1.7-1.7-1.7-1.573 0-1.577-.004-1.577-1.6 0-1.562-.033-1.6-1.4-1.6-1.333 0-1.4-.067-1.4-1.4 0-1.367-.038-1.4-1.6-1.4H186v-3.2h-3.2V208h-3.2v-3.2h-3.2v-1.6c0-1.562-.033-1.6-1.4-1.6-1.333 0-1.4-.067-1.4-1.4 0-1.367-.038-1.4-1.6-1.4h-1.6v-3.2h-3.2v-3.2H164v-3.2h-3.2v-1.6c0-1.562-.033-1.6-1.4-1.6-1.333 0-1.4-.067-1.4-1.4 0-1.367-.038-1.4-1.6-1.4h-1.6V180h-3.2v-3.2h-3.2v-3.2h-3.2v-3.2H142v-1.6c0-1.562-.033-1.6-1.4-1.6-1.333 0-1.4-.067-1.4-1.4 0-1.367-.038-1.4-1.6-1.4H136v-3.2h-3.2V158h-3.2v-3.2h-3.2v-1.6c0-1.562-.033-1.6-1.4-1.6-1.333 0-1.4-.067-1.4-1.4 0-1.367-.038-1.4-1.6-1.4h-1.6v-3.2h-3.2v-3.2H114v-3.2h-3.2v-1.6c0-1.562-.033-1.6-1.4-1.6-1.333 0-1.4-.067-1.4-1.4 0-1.367-.038-1.4-1.6-1.4h-1.6V130h-3.2v-3.2h-3.2v-3.2h-3.2v-3.2H92v-1.6c0-1.562-.033-1.6-1.4-1.6-1.333 0-1.4-.067-1.4-1.4 0-1.367-.038-1.4-1.6-1.4H86v-3.2h-3.2V108h-3.2v-3.2h-3.2v-1.6c0-1.562-.033-1.6-1.4-1.6-1.333 0-1.4-.067-1.4-1.4 0-1.367-.038-1.4-1.6-1.4h-1.6v-3.2h-3.2v-3.2H64v-3.2h-3.2v-1.6c0-2.153-2.516-2.52-2.934-.428-.493 2.463.143 5.228 1.202 5.228 1.144 0 1.282.304 1.649 3.629.271 2.453.335 2.573 1.48 2.771 1.303.225 1.664 1.093 1.756 4.217.043 1.464.17 1.654 1.347 2 1.053.31 1.32.611 1.403 1.583.329 3.826.547 4.6 1.299 4.6 1 0 1.997 1.486 2.003 2.989.009 2.002.441 3.007 1.393 3.246 1.184.297 1.802 1.737 1.802 4.196 0 1.538.16 2.051.7 2.242 1.409.5 2.1 1.448 2.105 2.889.008 2.03.397 3.238 1.042 3.238 1.072 0 2.153 1.551 2.158 3.1.009 2.249.397 3.3 1.219 3.3 1.089 0 1.976 1.559 1.976 3.473 0 .933.225 1.883.5 2.111.275.229.918.735 1.43 1.124.738.562.975 1.219 1.155 3.2.146 1.607.404 2.492.726 2.492 1.314 0 2.279 1.453 2.533 3.815.21 1.95.399 2.402 1.056 2.523 1.355.251 1.8.893 1.805 2.611.008 2.232.376 3.451 1.042 3.451 1.285 0 2.153 1.541 2.153 3.821 0 2.119.056 2.24 1.229 2.649 1.423.496 1.971 1.649 1.971 4.146 0 1.538.147 1.839 1.152 2.359 1.279.662 1.648 1.34 1.648 3.032 0 1.614.676 3.193 1.367 3.193.96 0 1.833 1.658 1.833 3.48 0 1.424.179 1.812 1.1 2.383 1.728 1.07 2.1 1.749 2.1 3.832 0 1.737.126 2.014 1.194 2.624 1.347.769 2.006 2.266 2.006 4.561 0 1.384.14 1.61 1.229 1.99 1.39.485 1.971 1.647 1.971 3.946 0 1.338.176 1.654 1.217 2.193 1.398.723 1.983 1.97 1.983 4.227 0 1.311.168 1.648.976 1.955 1.268.482 1.824 1.571 1.824 3.573 0 1.333.194 1.738 1.1 2.299 1.751 1.084 2.1 1.752 2.1 4.023 0 1.856.119 2.179.916 2.482 1.497.569 2.05 1.578 2.067 3.774.016 1.92.103 2.098 1.304 2.658 1.398.652 2.113 2.089 2.113 4.249 0 1.078.231 1.45 1.217 1.96 1.398.723 1.983 1.97 1.983 4.226 0 1.28.182 1.665.956 2.018 1.233.561 1.844 1.939 1.844 4.156 0 1.559.142 1.844 1.188 2.385 1.53.791 2.012 1.732 2.012 3.931 0 1.58.128 1.831 1.148 2.254 1.413.585 2.052 1.906 2.052 4.24 0 1.201.171 1.781.524 1.781 1.315 0 2.061 1.136 2.268 3.452.172 1.929.368 2.408 1.142 2.792 1.558.773 1.851 1.295 2.063 3.669.179 2.012.335 2.343 1.325 2.816 1.3.621 1.878 1.879 1.878 4.087 0 1.338.176 1.654 1.217 2.193 1.388.717 1.983 1.969 1.983 4.169 0 1.302.168 1.594 1.148 2.001 1.375.569 2.052 1.899 2.052 4.03 0 1.325.18 1.663 1.149 2.165 1.268.655 1.637 1.579 1.646 4.116.004 1.5.15 1.764 1.305 2.356 1.724.883 1.887 1.194 1.894 3.627.005 1.71.144 2.117.796 2.324 1.447.459 2.41 2.159 2.41 4.257 0 1.087.185 1.946.418 1.946 1.127 0 2.382 1.988 2.382 3.773 0 1.541.163 1.909 1.1 2.49 1.746 1.081 2.1 1.752 2.1 3.98 0 1.934.089 2.129 1.19 2.617 1.451.642 2.19 2.275 1.884 4.164-.211 1.299-.122 1.461 1.126 2.057 1.53.729 2.396 2.384 2.088 3.991-.232 1.216.036 2.222.513 1.927 1.051-.649 2.906 2.242 2.677 4.173-.222 1.874-.185 1.97.961 2.444 1.568.65 2.049 1.642 1.891 3.904-.126 1.8-.082 1.883 1.362 2.57 1.632.775 2.16 1.95 1.765 3.926-.21 1.051-.06 1.298 1.321 2.17 1.765 1.115 2.21 2.087 1.845 4.034-.235 1.25-.133 1.427 1.362 2.37 1.687 1.065 1.742 1.179 1.622 3.341-.06 1.091.22 1.602 1.56 2.838 1.735 1.603 1.633 1.207 1.633 6.311 0 .36-1.483.35-2.923-.019-1.071-.274-1.11-.367-.86-2.037.267-1.78-.055-4.235-.547-4.167-1.138.158-2.07-.149-2.07-.681 0-.343-.178-.513-.395-.379-.218.135-.307.01-.198-.276.319-.84.483-4.7.192-4.52-1.059.654-3.507-1.499-3.155-2.774.391-1.417.307-2.81-.2-3.317-.326-.325-.539-.378-1.844-.46-.44-.027-.8-.331-.8-.674s-.15-.53-.334-.417c-.184.114-.208-.624-.054-1.639.421-2.776-.593-4.12-2.859-3.791-.136.02-.226-1.333-.2-3.006l.047-3.041-1.2-.133a65.954 65.954 0 0 1-1.705-.208c-.367-.054-.436-.596-.251-1.986.353-2.664-.005-3.86-1.138-3.793-1.512.09-2.059-.832-2.084-3.511-.02-2.255-.097-2.462-.954-2.583-1.716-.243-2.291-1.243-2.056-3.576.238-2.365-.07-2.892-1.692-2.892-.748 0-1.12-.207-1.12-.624 0-.343-.146-.533-.325-.422-.35.216-.252-2.344.112-2.933.47-.76-.532-2.386-1.37-2.224-.449.086-.817-.013-.817-.22s-.249-.377-.554-.377c-.438 0-.515-.605-.366-2.9.104-1.595.06-2.772-.097-2.616-.156.156-.877.037-1.601-.266-.724-.302-1.433-.434-1.575-.292-.142.142-.162-.72-.045-1.915.296-3.03.006-3.959-1.196-3.827-.531.058-.966-.049-.966-.239s-.256-.345-.57-.345c-.441 0-.53-.463-.393-2.065.217-2.55-.07-3.535-1.031-3.535-1.108 0-2.031-.436-1.78-.842.122-.197.071-.358-.113-.358s-.265-.722-.181-1.604c.251-2.63-.159-3.596-1.526-3.596-1.519 0-2.047-.987-1.9-3.55.063-1.092-.025-1.9-.196-1.795-.17.106-.31.041-.31-.144 0-.184-.549-.543-1.219-.796-1.172-.442-1.214-.541-1.077-2.511.079-1.128-.005-2.143-.187-2.255-.182-.112-.226-.372-.1-.577.127-.204-.005-.395-.293-.423-1.975-.193-2.377-.269-2.602-.493-.279-.28-.219-3.775.074-4.249.227-.368-1.124-1.637-1.861-1.748-1.266-.192-1.535-.759-1.535-3.236 0-2.58-.27-2.97-2.2-3.18-.772-.083-.973-.863-.807-3.133l.168-2.29-1.562-.467c-1.563-.469-2.474-2.062-1.8-3.151.142-.23.051-1.044-.202-1.81-.423-1.282-.839-1.554-2.297-1.499-.601.022-.612-.014-.701-2.309-.124-3.214-.468-3.984-1.777-3.984-1.349 0-1.571-.572-1.2-3.096.275-1.865-.318-2.776-2.021-3.104-1.287-.248-1.333-.347-1.255-2.739.072-2.197-.436-3.11-1.846-3.317-.982-.144-1.312-.991-1.238-3.176.083-2.419-.19-2.968-1.472-2.968-1.271 0-1.871-1.207-1.633-3.281.233-2.033-.285-3.119-1.491-3.119-1.422 0-1.866-.78-1.866-3.28 0-1.366-.174-2.32-.424-2.32-.233 0-.298-.203-.144-.452.171-.276.063-.375-.276-.254-1.326.472-1.956-.449-1.956-2.859 0-2.464-.387-3.124-2.013-3.438-1.269-.244-1.322-.357-1.242-2.642.078-2.179-.4-3.155-1.545-3.155-1.17 0-1.708-1.087-1.656-3.345.052-2.263-.531-3.221-2.144-3.521-.699-.13-.8-.465-.8-2.655 0-2.655-.381-3.261-2.057-3.273-1.049-.007-1.343-.703-1.343-3.177 0-2.003-.809-3.229-2.131-3.229-.719 0-.819-.447-.694-3.126.092-1.991-.471-2.874-1.834-2.874-1.212 0-1.724-1.237-1.46-3.526.225-1.947-.326-2.874-1.706-2.874-1.246 0-1.53-.58-1.554-3.173-.019-2.023-.114-2.24-1.221-2.81-1.667-.857-1.817-1.155-1.677-3.332.124-1.938-.316-2.749-1.595-2.937-1.553-.228-1.728-.519-1.728-2.886 0-2.485-.512-3.36-2.033-3.472-1.134-.083-1.247-.33-1.219-2.662.033-2.855-.22-3.528-1.326-3.528-1.468 0-1.924-.909-1.683-3.357.236-2.409-.202-3.161-1.626-2.789-1.16.304-1.839-1.064-1.551-3.124.279-1.99-.287-3.13-1.552-3.13-1.245 0-1.483-.436-1.483-2.721 0-1.033-.079-2.175-.177-2.536-.206-.765-1.747-1.296-1.756-.606-.004.285-.141.251-.355-.088-.192-.303-.517-.448-.721-.322-.219.135-.314-.711-.231-2.048.077-1.254.047-2.662-.069-3.131-.221-.902-1.814-1.609-1.824-.811-.004.285-.141.251-.355-.088-.192-.303-.513-.45-.713-.327-.208.129-.317-.941-.254-2.507.115-2.848-.406-3.956-1.638-3.484-.969.372-1.461-.731-1.383-3.104.083-2.54-.138-2.91-1.851-3.096-1.192-.13-1.2-.148-1.214-2.674-.015-2.598-.814-3.962-2.045-3.49-.896.344-1.386-.89-1.3-3.27.103-2.851-.058-3.169-1.551-3.066-1.272.088-1.272.089-1.407-3.362-.088-2.262-1.239-3.893-1.953-2.769-.247.388-.319.379-.324-.043-.003-.298-.232-.456-.509-.35-.369.142-.494-.404-.469-2.057.046-3.11-.261-3.815-1.668-3.834-1.157-.016-1.16-.023-1.36-3.016-.192-2.881-.24-3.001-1.21-3.021-1.757-.036-2.02-.463-1.946-3.157.08-2.913-.176-3.514-1.427-3.35-1.475.193-2.136-.663-1.925-2.494.295-2.553-.136-3.701-1.308-3.477-1.394.266-1.82-.486-1.907-3.37-.075-2.458-.108-2.532-1.155-2.55-1.334-.022-2.923-1.34-2.331-1.932 1.106-1.106.272-4.809-1.036-4.593-1.442.237-1.755-.383-1.755-3.475v-2.972l-1.1.068c-2.087.129-2.327.911-1.48 4.805.211.966 1.431 1.822 2.28 1.597.165-.043.323.326.351.821.028.495.078 1.44.111 2.1.084 1.688.604 3 1.189 3 1.166 0 1.904 1.066 2.03 2.932.136 2.017 1.065 3.468 2.219 3.468.487 0 .658.308.612 1.1-.089 1.52.607 4.136 1.031 3.874.191-.119.256.023.144.315-.123.321.262.705.979.976.894.337 1.132.638.977 1.232-.394 1.504.622 4.093 1.913 4.879 1.07.65 1.233.996 1.363 2.881.148 2.169 1.089 3.543 2.425 3.543.368 0 .556.471.556 1.392 0 2.048 1.148 4.608 2.256 5.029.519.198.955.679.97 1.069.03.837.276 2.781.495 3.91.111.571.48.804 1.289.814 1.075.013 1.139.115 1.239 1.992.058 1.088.285 2.039.506 2.112.22.074.29.422.155.773-.183.475-.099.552.322.298.467-.281.479-.233.071.271-.644.796-.159 1.281.637.637.496-.402.553-.396.297.03-.223.369-.103.489.402.4.589-.104.742.197.85 1.673.217 2.952.472 3.588 1.758 4.37 1.08.657 1.242.998 1.372 2.887.148 2.169 1.089 3.543 2.425 3.543.367 0 .572.509.603 1.5.044 1.394.599 4.245.706 3.623.191-1.122 2.434 2.108 2.585 3.722.209 2.24.839 3.498 1.958 3.912.621.23.877.719.97 1.852.069.846.263 1.641.43 1.765.167.124.306.676.309 1.226.004.837.198 1.002 1.186 1.014 1.07.013 1.185.145 1.225 1.4.074 2.343.952 4.349 2.182 4.985.797.412 1.073.807.935 1.334-.399 1.527.649 4.13 1.845 4.581 1.015.383 1.146.657 1.37 2.855.249 2.451 1.148 3.831 2.496 3.831.499 0 .772 1.241.59 2.681-.135 1.076 1.175 3.342 2.147 3.712.979.372 1.227 1.065 1.04 2.907-.039.385.085.7.276.7s.338.495.325 1.1c-.019.952.136 1.102 1.15 1.114 1.121.013 1.176.099 1.277 1.992.058 1.088.297 2.043.531 2.121.234.078.318.314.188.525-.313.506.577 1.547 1.684 1.968.612.233.823.571.685 1.099-.413 1.578.639 4.094 2.063 4.934.857.506 1.274 1.01 1.134 1.374-.398 1.039.257 2.542 1.371 3.147 1.057.573 1.063.595.171.61-.549.01-.816.189-.66.443.145.234.36.331.477.214.621-.621 1.708.688 1.721 2.073.016 1.8 1.539 5.329 1.59 3.686.044-1.418 1.505 1.349 1.717 3.253.251 2.249 2.279 5.347 2.279 3.48 0-1.149.554.236.63 1.573.046.822.104 1.809.127 2.194a.765.765 0 0 0 .743.706c.597.005.612.062.1.387-.513.325-.467.513.313 1.294.717.717.985.798 1.245.379.451-.728.671-.048.806 2.494.121 2.278.547 3.097 2.086 4.006.698.412 1.031.879.89 1.247-.404 1.052.245 2.553 1.365 3.161 1.057.573 1.063.595.171.61-.549.01-.816.189-.66.443.145.234.36.331.477.214.651-.652 1.707.693 1.707 2.173 0 1.593 1.02 3.153 2.1 3.214.275.016.14.169-.3.341-.779.305-.777.32.08.592.926.295 1.224.879 1.454 2.852.077.662.33 1.56.563 1.995.233.436.427.942.43 1.125.016.845.475.688.491-.166.015-.833.135-.744.861.633.463.88.821 2.185.794 2.9-.037.979.121 1.302.639 1.306.589.005.602.061.088.387-.513.325-.467.513.313 1.294.781.78.969.826 1.294.313.209-.33.397-.42.417-.2.021.22.113.76.206 1.2.408 1.931.635 3.263.7 4.1.039.495.306.9.594.9.294 0 .398.203.238.462-.157.254-.114.356.095.226.793-.49 1.448.49 1.583 2.367.193 2.701.248 2.938.627 2.704.183-.114.336.119.339.517.004.512.099.577.324.224.577-.909 1.588.374 1.792 2.273.18 1.683.404 2.005 2.143 3.082.635.393.585.428-.371.252-.917-.168-1.061-.086-.844.479.165.431.36.522.529.248.492-.797 1.6.498 1.683 1.966.043.77.314 1.881.602 2.469.396.807.408 1.107.05 1.226-.278.093-.174.273.254.437.609.234.696.116.535-.726-.106-.553-.131-1.006-.056-1.006.447 0 1.833 3.548 1.833 4.69 0 1.006.147 1.308.56 1.15.308-.118.56-.056.56.139s-.225.438-.5.541c-.346.129-.219.477.413 1.133.778.807.97.858 1.294.347.209-.33.397-.42.417-.2.021.22.12.76.222 1.2.101.44.215 1.39.254 2.11.047.886.236 1.247.585 1.113.283-.109.515-.024.515.19 0 .213-.18.387-.4.387-.616 0-.474 1.086.174 1.335.316.121.662.005.769-.257.11-.272.207-.19.225.189.018.366.234.734.481.816.247.082.512 1.042.589 2.133.182 2.571.258 3.022.471 2.808.302-.302 1.219.756.987 1.138-.121.199-.048.256.161.126.742-.458 1.47.457 1.53 1.924.058 1.42.288 1.734 2.078 2.843.635.393.585.428-.371.252-.917-.168-1.061-.086-.844.479.165.431.36.522.529.248.552-.893 1.572.56 1.802 2.566.126 1.1.257 2.217.291 2.482.034.266.198.399.364.296.167-.104.401.129.519.517.119.388.158.21.086-.395-.071-.605-.069-1.1.006-1.1.375 0 1.753 3.302 1.753 4.2 0 1.201 1.434 4.2 2.008 4.2.216 0 .392-.21.392-.467 0-.814.427-.076.642 1.109.114.628.396 1.258.628 1.401.271.168.227.337-.125.477-.351.14-.269.228.231.248.769.032.769.038 0 .665-.663.54-.674.6-.076.412.789-.248.976.385.2.675-.346.129-.219.477.413 1.133.778.807.97.858 1.294.347.209-.33.397-.42.417-.2.021.22.11.76.2 1.2.089.44.195 1.467.234 2.282.069 1.423.779 2.19 1.574 1.699.197-.123.261.034.14.347-.12.313.096.883.48 1.267.384.384.709 1.259.723 1.944.018.92.235 1.285.825 1.392.44.081.98.32 1.2.532.259.249.154.291-.3.118-.385-.147-.7-.153-.7-.014 0 .139.414.41.919.602.737.28.94.693 1.022 2.075.056.949.27 1.929.477 2.177.206.249.257.571.112.716-.145.145.082.266.503.269.422.003 1.037.195 1.367.426.463.324.371.364-.4.173-.962-.237-.971-.223-.224.374.428.342.608.624.4.627-.207.003-.137.158.154.342.292.185.631 1.128.754 2.094.237 1.858.782 2.888 1.345 2.54.297-.183 1.971 2.918 1.971 3.652 0 .153.315.534.7.847.502.409.561.627.206.775-.321.135-.095.541.648 1.167.753.633 1.227 1.495 1.393 2.535.138.866.477 1.666.752 1.777.374.15.362.21-.043.233-.386.023-.322.237.219.732.419.385.543.555.275.377-.349-.231-.424-.082-.266.523.128.487.444.76.748.643.318-.122.447.008.325.326-.112.29.12.85.514 1.245.397.397.661 1.143.591 1.672-.068.526.114 1.251.407 1.612.373.461.384.567.036.358-.331-.199-.421-.102-.269.292.262.686 1.275 1.155 1.796.833.197-.123.237.102.089.498-.225.6-.17.64.327.236.51-.414.612-.24.696 1.185.054.918.267 1.873.474 2.121.206.249.257.571.112.716-.145.145.116.263.58.263.463 0 .953.178 1.087.395.14.227-.02.294-.376.158-.342-.131-.621-.125-.621.014s.417.411.927.605c.79.301.94.667 1.021 2.49.086 1.948 1.211 4.351 1.275 2.724.045-1.139 1.949 3.433 1.963 4.714.009.806.216 1.3.544 1.3.851 0 2.141 1.685 2.418 3.157.14.746.569 1.613.953 1.925.518.421.567.623.191.779-.348.144-.196.457.482.99.614.483.899 1.016.75 1.404-.133.344.009.78.315.969.332.205.504.834.428 1.56-.07.669.061 1.216.29 1.216.23 0 .32.256.2.569-.941 2.451 5.087 4.808 6.177 2.416.777-1.705 1.009-5.14.46-6.804-.405-1.227-.401-25.43.021-123.514l.525-121.988-1.17-.925c-.644-.509-1.73-1.378-2.413-1.93-.684-.552-2.034-1.365-3-1.806-.967-.441-2.207-1.143-2.757-1.56-.55-.417-1.81-1.234-2.8-1.815-.99-.582-2.88-1.766-4.2-2.631-1.32-.865-3.408-2.11-4.64-2.768-1.233-.657-2.763-1.623-3.4-2.147-.638-.523-1.739-1.183-2.447-1.467-.707-.284-1.506-.781-1.775-1.104-.268-.324-1.309-1.005-2.313-1.515-1.004-.51-2.756-1.531-3.893-2.269a223.205 223.205 0 0 0-4.709-2.942c-1.452-.88-3.311-2.115-4.131-2.744-.821-.629-2.392-1.574-3.492-2.101-1.1-.527-2.579-1.362-3.287-1.857-2.813-1.963-4.006-2.709-6.184-3.87-1.249-.666-2.387-1.398-2.529-1.628-.142-.23-1.28-.961-2.529-1.624-1.249-.663-2.836-1.604-3.527-2.091A55.893 55.893 0 0 0 132.375 87a1376.751 1376.751 0 0 0-7.934-4.8 89.456 89.456 0 0 1-3.209-2.049c-1.026-.688-2.578-1.614-3.449-2.058-.871-.444-1.92-1.18-2.331-1.635-.412-.456-1.402-1.037-2.2-1.293-.799-.256-2.172-.989-3.052-1.629-1.55-1.127-4.316-2.893-9.5-6.066a539.008 539.008 0 0 1-5.3-3.297c-1.54-.972-2.997-1.769-3.238-1.77-.241-.002-.781-.383-1.2-.847-.419-.464-1.752-1.345-2.962-1.957-2.21-1.119-5.738-3.313-7.6-4.727-.55-.418-1.81-1.165-2.8-1.66-.99-.495-2.25-1.31-2.8-1.811-.55-.501-1.394-1.03-1.876-1.175-.85-.257-5.303-3.028-7.324-4.558-.55-.417-1.932-1.229-3.072-1.805-1.139-.576-2.182-1.226-2.317-1.445-.135-.218-.912-.703-1.728-1.077-.816-.373-2.293-1.256-3.283-1.96-.99-.704-2.52-1.664-3.4-2.132-.88-.469-2.05-1.189-2.6-1.6-.55-.411-2.751-1.77-4.891-3.021-2.139-1.251-3.997-2.447-4.128-2.659-.131-.211-1.17-.854-2.309-1.429-1.14-.574-2.702-1.537-3.472-2.139-.77-.602-1.85-1.229-2.4-1.394-.55-.164-1.36-.625-1.8-1.023-.44-.398-1.757-1.203-2.926-1.788-1.169-.585-2.214-1.295-2.323-1.579-.561-1.462-7.263-5.273-9.751-5.545-2.537-.277-3.53-.653-3.735-1.413-.099-.362-.125.421-.058 1.741M42 56.8v2h3.2v-4H42v2m3.2 6.4v2h3.2v-4h-3.2v2m3.2 6.2v2.2h3.2v-4.4h-3.2v2.2m3.2 6.4V78h3.2v-4.4h-3.2v2.2m3.2 6.4v2.2H58V80h-3.2v2.2m116.4 254.435c0 .215 1.55 1.765 1.765 1.765.257 0 .025-1.144-.298-1.467-.323-.323-1.467-.555-1.467-.298m15.6 31.2c0 .215 1.55 1.765 1.765 1.765.257 0 .025-1.144-.298-1.467-.323-.323-1.467-.555-1.467-.298m3.2 6.8c0 .311.18.565.4.565.22 0 .4-.191.4-.424 0-.233.225-.294.5-.135.275.158.36.133.188-.055-.527-.579-1.488-.547-1.488.049m9 1.068c.891 1.999.143 4.883-1.303 5.023-1.3.125-2.284-.866-1.455-1.466.197-.143.411-.766.477-1.383.299-2.825 1.486-3.956 2.281-2.174" stroke="none" fill="#7feca2" fill-rule="evenodd"/><path id="SvgjsPath1002" d="M11.6 11.519c0 .239.208.562.462.719.309.191.356.1.141-.276-.25-.438-.209-.459.187-.093.279.258.731.383 1.005.278.678-.261 3.841 1.146 3.677 1.636-.141.424.702.95 5.281 3.298 1.709.876 3.126 1.894 3.364 2.417.232.509 1.362 1.337 2.593 1.901 1.2.549 2.797 1.539 3.55 2.2.752.661 1.618 1.201 1.923 1.201.306 0 1.072.435 1.704.966.631.531 2.161 1.446 3.4 2.033 1.239.586 2.345 1.308 2.459 1.604.114.296 1.07.92 2.125 1.387 1.056.467 2.284 1.192 2.729 1.61.446.419 1.501 1.05 2.345 1.403.843.352 1.921 1.042 2.394 1.533.474.491 1.671 1.238 2.661 1.661.99.422 2.34 1.197 3 1.721 1.67 1.327 5.203 3.456 7.705 4.643 1.158.55 2.208 1.269 2.334 1.598.127.329 1.385 1.138 2.796 1.798C70.846 47.418 72 48.125 72 48.33c0 .204.862.742 1.915 1.195 1.053.453 2.236 1.179 2.628 1.613.393.433 1.556 1.15 2.586 1.593 1.03.443 2.308 1.27 2.841 1.837.533.568 1.173 1.032 1.421 1.032.249 0 1.343.576 2.431 1.28 1.088.703 2.833 1.685 3.878 2.181s1.9 1.1 1.9 1.343c0 .242 1.035.894 2.3 1.449 1.265.554 2.66 1.363 3.1 1.797.988.975 4.591 3.238 7 4.397.99.476 2.391 1.38 3.114 2.009.723.629 1.559 1.144 1.86 1.144.3 0 1.509.73 2.686 1.621 1.177.892 2.649 1.727 3.272 1.857.622.129 1.342.584 1.6 1.011.257.427 1.595 1.291 2.972 1.92 1.376.629 2.605 1.411 2.73 1.736.125.326.904.864 1.731 1.194.827.331 2.028 1.037 2.669 1.569s2.03 1.294 3.087 1.692c1.057.399 2.162 1.069 2.457 1.49.295.421 1.608 1.272 2.919 1.892 1.31.62 2.487 1.399 2.615 1.732.127.333.92.826 1.76 1.095s1.919.846 2.397 1.281c.478.435 1.816 1.23 2.973 1.766 1.158.536 2.348 1.322 2.645 1.747.297.424 1.306 1.11 2.241 1.524.935.414 2.216 1.23 2.847 1.815.63.584 1.851 1.273 2.713 1.532.862.258 1.791.789 2.065 1.18.273.39 1.386 1.09 2.472 1.554 1.086.464 2.46 1.372 3.052 2.018.593.646 1.442 1.174 1.887 1.174.444 0 1.408.527 2.142 1.171s2.135 1.477 3.114 1.851c.979.374 2.14 1.081 2.58 1.572.44.49 1.835 1.358 3.1 1.927 1.265.569 2.3 1.235 2.3 1.479s.952.865 2.116 1.38c1.164.515 2.358 1.227 2.653 1.582.295.356 1.368 1.015 2.384 1.464 1.016.449 2.297 1.24 2.847 1.758.55.518 1.659 1.213 2.465 1.544.806.331 1.831.968 2.279 1.416.97.97 2.981 2.056 3.807 2.056.325 0 .926.405 1.336.9.41.495 1.098 1.097 1.529 1.337 1.98 1.103 1.916-4.144 1.198 98.706-.543 77.577-.611 125.762-.215 152.099.017 1.124-.226 2.834-.54 3.8-.314.967-.682 2.242-.816 2.833-.224.982-1.843 1.555-1.843.652 0-.166-.3-.187-.666-.046-.428.164-.568.098-.393-.185.15-.243.091-.553-.13-.689-.258-.16-.358.588-.279 2.072.072 1.341.309 2.321.563 2.321.241 0 .565.127.72.282.306.306 2.812.06 4.889-.481.787-.204 1.214-.193 1.077.03-.353.57.209.436.848-.202.641-.642.771-1.2.197-.845-.233.144-.233-.261-.002-1.067.45-1.57.116-3.017-.544-2.357-.645.645-.909.541-.909-.36 0-.585.192-.739.715-.573.397.126.714.027.714-.224 0-.247-.18-.339-.4-.203-.579.358-.51-6.838.08-8.472.265-.73.603-1.328.752-1.328.441 0 1.088-2.05 1.347-4.273.133-1.141.668-3.039 1.19-4.219.522-1.18 1.338-4.027 1.813-6.327.476-2.3 1.287-4.904 1.804-5.788.517-.885 1.122-2.595 1.346-3.8.485-2.609 1.119-4.365 1.879-5.205.306-.338.932-2.228 1.392-4.201.46-1.973 1.168-4.149 1.573-4.836.405-.687 1.025-2.517 1.377-4.066.769-3.38 1.271-4.766 1.983-5.478.293-.293.849-2.034 1.235-3.87.387-1.835 1.126-3.991 1.641-4.79.516-.799 1.143-2.599 1.395-4 .252-1.401.906-3.473 1.453-4.605.547-1.133 1.345-3.463 1.774-5.179.429-1.717 1.135-3.722 1.568-4.457.434-.735 1.163-2.814 1.621-4.621.458-1.807 1.113-3.718 1.455-4.247.342-.529 1.043-2.664 1.558-4.744.515-2.08 1.303-4.403 1.751-5.162.448-.759 1.16-2.699 1.582-4.31.422-1.611 1.119-3.625 1.548-4.475.43-.851 1.27-3.257 1.867-5.347.598-2.09 1.235-3.98 1.417-4.2.182-.22.809-2.11 1.393-4.2.584-2.09 1.311-4.187 1.616-4.659.305-.473 1.027-2.543 1.604-4.6.578-2.058 1.403-4.314 1.834-5.014.431-.7 1.055-2.574 1.387-4.164.331-1.591 1.031-3.808 1.556-4.927.524-1.12 1.249-3.195 1.611-4.612.363-1.417 1.002-3.249 1.422-4.071.419-.822 1.147-2.903 1.616-4.624.47-1.721 1.113-3.635 1.429-4.253.317-.617 1.121-2.957 1.787-5.199.666-2.241 1.36-4.256 1.544-4.477.184-.221.881-2.244 1.55-4.495.668-2.251 1.411-4.458 1.649-4.904.239-.446 1.679-4.586 3.201-9.201s2.97-8.771 3.219-9.236c.249-.464.901-2.393 1.45-4.285.548-1.892 1.335-4.104 1.749-4.914.413-.811 1.051-2.799 1.417-4.419.365-1.62 1.079-3.769 1.585-4.775.507-1.005 1.216-2.985 1.576-4.4.361-1.414 1.024-3.345 1.475-4.291.451-.946 1.329-3.376 1.951-5.4 1.71-5.56 3.15-9.856 4.048-12.08.445-1.1 1.171-3.17 1.615-4.6.443-1.43 1.319-3.86 1.945-5.4.626-1.54 1.492-4.178 1.925-5.863.432-1.685 1.065-3.603 1.407-4.263.341-.66 1.005-2.611 1.477-4.337.471-1.725 1.174-3.767 1.562-4.537.389-.77 1.108-2.84 1.599-4.6.491-1.76 1.221-3.848 1.623-4.639.402-.792 1.019-2.681 1.371-4.197.352-1.516 1.076-3.68 1.609-4.808.534-1.128 1.352-3.439 1.817-5.137.466-1.698 1.258-3.927 1.761-4.953.502-1.026 1.127-2.766 1.388-3.866.261-1.1 1.03-3.372 1.71-5.048l1.236-3.049-.757-1.542c-.972-1.979-1.958-2.269-12.158-3.573-4.29-.548-8.88-1.256-10.2-1.573-1.32-.317-5.37-.954-9-1.414-3.63-.461-7.59-1.102-8.8-1.424-1.21-.323-5.53-1.035-9.6-1.582-4.07-.547-8.84-1.349-10.6-1.783-1.76-.434-5.18-.981-7.6-1.216-5.386-.524-9.056-1.085-10.373-1.586-.898-.341-2.997-.668-13.227-2.058-1.76-.239-4.55-.765-6.2-1.168-1.65-.404-5.97-1.111-9.6-1.573-3.63-.462-7.59-1.1-8.8-1.419-1.21-.318-5.35-.947-9.2-1.398-3.85-.45-8.44-1.166-10.2-1.591-1.76-.425-6.578-1.235-10.706-1.8-4.128-.565-7.946-1.195-8.483-1.399-.933-.355-3.688-.78-14.411-2.225-2.64-.355-5.79-.89-7-1.187-1.21-.298-4.661-.835-7.669-1.193-3.009-.359-6.876-.995-8.595-1.415-1.719-.419-5.558-1.052-8.531-1.407-2.973-.356-7.475-1.08-10.005-1.609-5.46-1.144-8.36-1.591-14-2.158-2.31-.233-5.19-.691-6.4-1.018-1.21-.327-5.552-1.037-9.649-1.578-4.098-.54-8.868-1.349-10.6-1.797-1.733-.448-5.761-1.176-8.951-1.618-3.19-.442-6.61-1.06-7.6-1.374-.99-.314-4.5-.857-7.8-1.207-11.035-1.171-13.4-1.66-13.4-2.77 0-1.175-1.446-1.816-4.713-2.089-2.264-.189-3.287-.139-3.287.16m370.631 3.701c-.755 2.31-.602 2.802.836 2.683 1.199-.099 1.627-.867.943-1.691-.263-.317-.363-.765-.221-.994.142-.23.048-.418-.208-.418-.257 0-.365-.264-.241-.587.124-.323.073-.681-.113-.796-.186-.115-.634.697-.996 1.803m.801 2.281c-.435.436-.601-.134-.324-1.118l.276-.983.14.934c.077.514.036 1.039-.092 1.167m-3.505 2.599c-.087.275-.042 1.22.101 2.1.182 1.127.285 1.304.348.6.049-.55.171-1.495.271-2.1.178-1.083-.411-1.574-.72-.6M20.4 37.202c0 .193.183.464.407.602.223.138.284.464.135.724-.148.259-.123.339.057.175.18-.163.573-.092.874.157 1.028.854.753.142-.361-.934-.611-.591-1.112-.917-1.112-.724m137 2.398c-.298.482-3.679.482-4.8 0-.549-.236.119-.353 2.124-.372 1.853-.018 2.833.118 2.676.372m17.737 2.261 4.863.262v1.138c0 1.164 1.082 1.477 4.2 1.214 3.45-.29 17.274.875 18 1.517 1.024.906 4.447 1.474 12.161 2.017 3.582.252 6.602.662 7.217.979 1.519.786 4.954 1.309 12.022 1.829 3.845.283 7.036.738 8.4 1.198 2.877.968 5.865 1.459 12.13 1.993 2.821.24 6.241.773 7.6 1.184 2.825.854 6.517 1.429 12.996 2.021 2.49.228 6 .76 7.8 1.183 1.801.422 5.794 1.043 8.874 1.378 3.08.336 6.5.794 7.6 1.018 1.1.224 2.984.604 4.187.844 4.753.949 5.883 2.1 4.246 4.32-.539.73-1.269 2.666-1.648 4.369-.374 1.681-1.1 3.675-1.613 4.43-.513.755-1.238 2.787-1.612 4.516-.373 1.729-1.007 3.522-1.408 3.984-.823.949-.838.995-1.745 5.245-.364 1.705-.802 3.1-.974 3.1-.491 0-1.572 2.75-2.238 5.693-.335 1.48-1.03 3.312-1.544 4.07-.515.758-1.153 2.516-1.42 3.908-.266 1.391-.95 3.429-1.519 4.529s-1.354 3.426-1.745 5.168c-.396 1.767-.975 3.316-1.308 3.503-.698.391-1.701 3.306-2.091 6.077-.185 1.322-.58 2.215-1.226 2.777-1.068.929-1.571 2.503-1.972 6.175-.15 1.375-.396 2.5-.545 2.5-1.242 0-2.825 4.202-2.825 7.5 0 .773-.211.9-1.5.9l-1.5.001-.059 4.225c-.068 4.801-.046 4.742-1.533 4.177l-1.103-.419.288-4.992c.255-4.43.215-4.992-.353-4.992-.48 0-.64-.4-.64-1.6v-1.6h-3.2V136h-1.6c-1.562 0-1.6-.033-1.6-1.4s-.038-1.4-1.6-1.4H264V130h-3.2v-1.6c0-1.562-.033-1.6-1.4-1.6s-1.4-.038-1.4-1.6v-1.6h-3.2v-3.2h-3.2v-3.2H250c-1.562 0-1.6-.033-1.6-1.4s-.038-1.4-1.6-1.4h-1.6v-3.2H242v-1.6c0-1.562-.033-1.6-1.4-1.6s-1.4-.038-1.4-1.6v-1.6H236v-3.2h-1.6c-1.562 0-1.6-.033-1.6-1.4s-.038-1.4-1.6-1.4h-1.6v-3.2h-3.2V94c0-1.562-.033-1.6-1.4-1.6s-1.4-.038-1.4-1.6v-1.6h-3.2V86h-1.6c-1.562 0-1.6-.033-1.6-1.4s-.038-1.4-1.6-1.4H214V80h-3.2v-1.6c0-1.562-.033-1.6-1.4-1.6s-1.4-.038-1.4-1.6v-1.6h-3.2v-3.2h-3.2v-3.2H200c-1.562 0-1.6-.033-1.6-1.4s-.038-1.4-1.6-1.4h-1.6v-3.2H192v-1.6c0-1.562-.033-1.6-1.4-1.6s-1.4-.038-1.4-1.6v-1.6H186v-3.2h-1.6c-1.562 0-1.6-.033-1.6-1.4 0-1.349-.054-1.4-1.486-1.4-1.228 0-1.81-.318-3.341-1.827l-1.855-1.827-5.04-.486c-4.424-.426-5.167-.604-6.079-1.46-1.718-1.615.227-1.871 10.138-1.339M36 68.402c0 .193.183.464.407.602.223.138.284.464.135.724-.148.259-.123.339.057.175.18-.163.573-.092.874.157 1.028.854.753.142-.361-.934-.611-.591-1.112-.917-1.112-.724m15.6 31.124c0 .235.183.54.407.678.223.138.284.464.135.724-.148.259-.123.339.057.175.18-.163.573-.092.874.157 1.002.832.758.155-.365-1.01-.609-.633-1.108-.959-1.108-.724m3.2 6.476c0 .193.183.464.407.602.223.138.284.464.135.724-.148.259-.123.339.057.175.18-.163.573-.092.874.157 1.028.854.753.142-.361-.934-.611-.591-1.112-.917-1.112-.724m15.83 30.725c.037.59.111 1.163.166 1.273.054.11.062.38.018.6-.044.22.053.267.216.103.163-.163.529-.103.812.132.368.305.723.299 1.237-.023.626-.391.595-.416-.229-.188-.656.18-.863.121-.67-.191.161-.261.056-.406-.25-.343-.292.061-.481-.128-.42-.42.063-.306-.082-.411-.343-.25-.307.19-.369.017-.194-.536.143-.449.109-.91-.075-1.023-.184-.114-.304.276-.268.866M273.573 158.7c-.023 1.629-.087 1.775-.45 1.025-.384-.795-.177-2.925.285-2.925.105 0 .18.855.165 1.9M86.23 167.927c.037.59.111 1.163.166 1.273.054.11.062.38.018.6-.044.22.053.267.216.103.163-.163.529-.103.812.132.368.305.723.299 1.237-.023.626-.391.595-.416-.229-.188-.656.18-.863.121-.67-.191.161-.261.056-.406-.25-.343-.292.061-.481-.128-.42-.42.063-.306-.082-.411-.343-.25-.307.19-.369.017-.194-.536.143-.449.109-.91-.075-1.023-.184-.114-.304.276-.268.866m15.383 31.549a.92.92 0 0 0 .394.728c.223.138.284.464.135.724-.148.259-.123.339.057.175.18-.163.56-.103.843.132.368.305.723.299 1.237-.023.626-.391.595-.416-.229-.188-.656.18-.863.121-.67-.191.154-.249.099-.403-.122-.343-.221.061-.679-.25-1.017-.69-.339-.44-.621-.586-.628-.324m3.417 6.051c.037.59.111 1.163.166 1.273.054.11.062.38.018.6-.044.22.053.267.216.103.163-.163.529-.103.812.132.368.305.723.299 1.237-.023.626-.391.595-.416-.229-.188-.656.18-.863.121-.67-.191.161-.261.056-.406-.25-.343-.292.061-.481-.128-.42-.42.063-.306-.082-.411-.343-.25-.307.19-.369.017-.194-.536.143-.449.109-.91-.075-1.023-.184-.114-.304.276-.268.866m15.6 31.2c.037.59.111 1.163.166 1.273.054.11.062.38.018.6-.044.22.053.267.216.103.163-.163.529-.103.812.132.368.305.723.299 1.237-.023.626-.391.595-.416-.229-.188-.656.18-.863.121-.67-.191.161-.261.056-.406-.25-.343-.292.061-.481-.128-.42-.42.063-.306-.082-.411-.343-.25-.307.19-.369.017-.194-.536.143-.449.109-.91-.075-1.023-.184-.114-.304.276-.268.866m15.6 31.174c.037.605.111 1.189.166 1.299.054.11.062.38.018.6-.044.22.053.267.216.103.163-.163.529-.103.812.132.362.3.732.303 1.237.009.676-.393.677-.424.021-.482a66.947 66.947 0 0 1-1.16-.112c-.253-.027-.528-.496-.612-1.041-.215-1.413-.778-1.822-.698-.508m15.383 31.575a.92.92 0 0 0 .394.728c.223.138.284.464.135.724-.148.259-.123.339.057.175.18-.163.56-.103.843.132.362.3.732.303 1.237.009.676-.393.677-.424.021-.482a32.648 32.648 0 0 1-1.083-.112c-.21-.027-.655-.41-.987-.85-.333-.44-.61-.586-.617-.324m3.417 6.025c.037.605.111 1.189.166 1.299.054.11.062.38.018.6-.044.22.053.267.216.103.163-.163.529-.103.812.132.362.3.732.303 1.237.009.676-.393.677-.424.021-.482a66.947 66.947 0 0 1-1.16-.112c-.253-.028-.528-.496-.612-1.041-.215-1.413-.778-1.822-.698-.508m15.541 30.905c0 .437.152.794.338.794.186 0 .24.16.119.355-.121.195.049.577.376.849.328.272.599.337.602.145.003-.192.143-.134.311.13.2.316.505.352.894.106.497-.315.48-.382-.111-.429a49.758 49.758 0 0 1-1.16-.106c-.253-.027-.528-.496-.612-1.041-.192-1.258-.757-1.857-.757-.803m15.6 31.2c0 .437.152.794.338.794.186 0 .24.16.119.355-.121.195.049.577.376.849.328.272.599.337.602.145.003-.192.143-.134.311.13.2.316.505.352.894.106.497-.315.48-.382-.111-.429a49.758 49.758 0 0 1-1.16-.106c-.253-.027-.528-.496-.612-1.041-.192-1.258-.757-1.857-.757-.803" stroke="none" fill="#50df8e" fill-rule="evenodd"/><path id="SvgjsPath1001" d="M10.914 12.6c.003 1.1.081 1.503.173.895.092-.609.09-1.509-.005-2-.095-.492-.171.005-.168 1.105m4.186 3.979c-.605.315-1.1.472-1.1.348s-.238-.027-.53.215c-.386.32-.656.312-1-.032-.36-.36-.47-.272-.47.377 0 .465-.225.927-.5 1.025-.275.098-.355.333-.178.522.177.188.485.078.685-.246.2-.323.725-.608 1.168-.633.442-.025.713.103.602.283-.112.18-.512.216-.89.081-.378-.136-.554-.099-.39.08.163.18.096.569-.149.864-.328.395-.327.537.003.537.247 0 .449-.18.449-.4 0-.22.191-.4.424-.4.233 0 .32.168.193.372-.126.205-.019.503.238.662.314.194.361.115.141-.24-.249-.403-.144-.452.438-.204.421.179 1.306.344 1.966.368 1.199.042 1.2.044 1.211 2.533.011 2.757.435 3.464 2.091 3.491 1.2.02 1.877 3.238.923 4.388-.583.703.884 1.987 2.297 2.011 1.05.019 1.08.087 1.155 2.608.083 2.781.679 3.705 2.142 3.322.858-.224.846-.263.927 3.189.03 1.265-.111 2.3-.313 2.3-.846 0 .196.473 1.429.648.736.104 1.532.254 1.77.332.468.155.493 4.971.028 5.723-.15.243-.103.547.106.676.208.129.475.079.592-.111.117-.19.76-.361 1.428-.38l1.214-.034v2.949c0 3.069.316 3.69 1.755 3.453 1.326-.219 2.137 3.492 1.01 4.619-.261.261-.285.527-.059.667.207.128.293 1.071.19 2.097-.12 1.2-.041 1.775.219 1.613.223-.137.347-.883.275-1.656-.092-.983.008-1.321.33-1.122.253.156.914.294 1.47.305.963.02 1.014.139 1.087 2.552.087 2.884.513 3.636 1.907 3.37 1.169-.223 1.603.923 1.311 3.458-.103.886.013 1.79.26 2.04.328.33.235.38-.355.187-.581-.19-.651-.155-.257.126.299.214 1.136.309 1.86.211 1.688-.227 1.926.2 1.841 3.299-.074 2.694.189 3.121 1.946 3.157.97.02 1.018.14 1.21 3.021.2 2.993.203 3 1.36 3.016 1.407.019 1.714.724 1.668 3.834-.025 1.653.1 2.199.469 2.057.277-.106.506.052.509.35.005.422.077.431.324.043.714-1.124 1.865.507 1.953 2.769.135 3.451.135 3.45 1.407 3.362 1.493-.103 1.654.215 1.551 3.066-.086 2.38.404 3.614 1.3 3.27 1.231-.472 2.03.892 2.045 3.49.014 2.526.022 2.544 1.214 2.674 1.713.186 1.934.556 1.851 3.096-.078 2.373.414 3.476 1.383 3.104 1.232-.472 1.753.636 1.638 3.484-.063 1.566.046 2.636.254 2.507.2-.123.521.024.713.327.214.339.351.373.355.088.01-.798 1.603-.091 1.824.811.116.469.146 1.877.069 3.131-.083 1.337.012 2.183.231 2.048.204-.126.529.019.721.322.214.339.351.373.355.088.009-.69 1.55-.159 1.756.606.098.361.177 1.503.177 2.536 0 2.285.238 2.721 1.483 2.721 1.265 0 1.831 1.14 1.552 3.13-.288 2.06.391 3.428 1.551 3.124 1.424-.372 1.862.38 1.626 2.789-.241 2.448.215 3.357 1.683 3.357 1.106 0 1.359.673 1.326 3.528-.028 2.332.085 2.579 1.219 2.662 1.521.112 2.033.987 2.033 3.472 0 2.367.175 2.658 1.728 2.886 1.279.188 1.719.999 1.595 2.937-.14 2.177.01 2.475 1.677 3.332 1.107.57 1.202.787 1.221 2.81.024 2.593.308 3.173 1.554 3.173 1.38 0 1.931.927 1.706 2.874-.264 2.289.248 3.526 1.46 3.526 1.363 0 1.926.883 1.834 2.874-.127 2.722-.028 3.126.763 3.126 1.246 0 2.062 1.306 2.062 3.299 0 2.403.301 3.1 1.343 3.107 1.676.012 2.057.618 2.057 3.273 0 2.19.101 2.525.8 2.655 1.613.3 2.196 1.258 2.144 3.521-.052 2.258.486 3.345 1.656 3.345 1.145 0 1.623.976 1.545 3.155-.08 2.285-.027 2.398 1.242 2.642 1.626.314 2.013.974 2.013 3.438 0 2.41.63 3.331 1.956 2.859.339-.121.447-.022.276.254-.154.249-.089.452.144.452.25 0 .424.954.424 2.32 0 2.5.444 3.28 1.866 3.28 1.206 0 1.724 1.086 1.491 3.119-.238 2.074.362 3.281 1.633 3.281 1.282 0 1.555.549 1.472 2.968-.074 2.185.256 3.032 1.238 3.176 1.41.207 1.918 1.12 1.846 3.317-.078 2.392-.032 2.491 1.255 2.739 1.703.328 2.296 1.239 2.021 3.104-.371 2.524-.149 3.096 1.2 3.096 1.309 0 1.653.77 1.777 3.984.089 2.295.1 2.331.701 2.309 1.458-.055 1.874.217 2.297 1.499.253.766.344 1.58.202 1.81-.674 1.089.237 2.682 1.8 3.151l1.562.467-.168 2.29c-.166 2.27.035 3.05.807 3.133 1.93.21 2.2.6 2.2 3.18 0 2.477.269 3.044 1.535 3.236.737.111 2.088 1.38 1.861 1.748-.293.474-.353 3.969-.074 4.249.225.224.627.3 2.602.493.288.028.42.219.293.423-.126.205-.082.465.1.577.182.112.266 1.127.187 2.255-.137 1.97-.095 2.069 1.077 2.511.67.253 1.219.612 1.219.796 0 .185.14.25.31.144.171-.105.259.703.196 1.795-.147 2.563.381 3.55 1.9 3.55 1.367 0 1.777.966 1.526 3.596-.084.882-.003 1.604.181 1.604s.235.161.113.358c-.251.406.672.842 1.78.842.961 0 1.248.985 1.031 3.535-.137 1.602-.048 2.065.393 2.065.314 0 .57.155.57.345 0 .19.435.297.966.239 1.202-.132 1.492.797 1.196 3.827-.117 1.195-.097 2.057.045 1.915.142-.142.851-.01 1.575.292.724.303 1.445.422 1.601.266.157-.156.201 1.021.097 2.616-.149 2.295-.072 2.9.366 2.9.305 0 .554.17.554.377s.368.306.817.22c.838-.162 1.84 1.464 1.37 2.224-.364.589-.462 3.149-.112 2.933.179-.111.325.079.325.422 0 .417.372.624 1.12.624 1.622 0 1.93.527 1.692 2.892-.235 2.333.34 3.333 2.056 3.576.857.121.934.328.954 2.583.025 2.679.572 3.601 2.084 3.511 1.133-.067 1.491 1.129 1.138 3.793-.185 1.39-.116 1.932.251 1.986.278.041 1.045.135 1.705.208l1.2.133-.047 3.041c-.026 1.673.064 3.026.2 3.006 2.266-.329 3.28 1.015 2.859 3.791-.154 1.015-.13 1.753.054 1.639.184-.113.334.074.334.417 0 .343.36.647.8.674 1.305.082 1.518.135 1.844.46.507.507.591 1.9.2 3.317-.352 1.275 2.096 3.428 3.155 2.774.291-.18.127 3.68-.192 4.52-.109.286-.02.411.198.276.217-.134.395.036.395.379 0 .532.932.839 2.07.681.492-.068.814 2.387.547 4.167-.25 1.67-.211 1.763.86 2.037 1.44.369 2.923.379 2.923.019 0-5.104.102-4.708-1.633-6.311-1.34-1.236-1.62-1.747-1.56-2.838.12-2.162.065-2.276-1.622-3.341-1.495-.943-1.597-1.12-1.362-2.37.365-1.947-.08-2.919-1.845-4.034-1.381-.872-1.531-1.119-1.321-2.17.395-1.976-.133-3.151-1.765-3.926-1.444-.687-1.488-.77-1.362-2.57.158-2.262-.323-3.254-1.891-3.904-1.146-.474-1.183-.57-.961-2.444.229-1.931-1.626-4.822-2.677-4.173-.477.295-.745-.711-.513-1.927.308-1.607-.558-3.262-2.088-3.991-1.248-.596-1.337-.758-1.126-2.057.306-1.889-.433-3.522-1.884-4.164-1.101-.488-1.19-.683-1.19-2.617 0-2.228-.354-2.899-2.1-3.98-.937-.581-1.1-.949-1.1-2.49 0-1.785-1.255-3.773-2.382-3.773-.233 0-.418-.859-.418-1.946 0-2.098-.963-3.798-2.41-4.257-.652-.207-.791-.614-.796-2.324-.007-2.433-.17-2.744-1.894-3.627-1.155-.592-1.301-.856-1.305-2.356-.009-2.537-.378-3.461-1.646-4.116-.969-.502-1.149-.84-1.149-2.165 0-2.131-.677-3.461-2.052-4.03-.98-.407-1.148-.699-1.148-2.001 0-2.2-.595-3.452-1.983-4.169-1.041-.539-1.217-.855-1.217-2.193 0-2.208-.578-3.466-1.878-4.087-.99-.473-1.146-.804-1.325-2.816-.212-2.374-.505-2.896-2.063-3.669-.774-.384-.97-.863-1.142-2.792-.207-2.316-.953-3.452-2.268-3.452-.353 0-.524-.58-.524-1.781 0-2.334-.639-3.655-2.052-4.24-1.02-.423-1.148-.674-1.148-2.254 0-2.199-.482-3.14-2.012-3.931-1.046-.541-1.188-.826-1.188-2.385 0-2.217-.611-3.595-1.844-4.156-.774-.353-.956-.738-.956-2.018 0-2.256-.585-3.503-1.983-4.226-.986-.51-1.217-.882-1.217-1.96 0-2.16-.715-3.597-2.113-4.249-1.201-.56-1.288-.738-1.304-2.658-.017-2.196-.57-3.205-2.067-3.774-.797-.303-.916-.626-.916-2.482 0-2.271-.349-2.939-2.1-4.023-.906-.561-1.1-.966-1.1-2.299 0-2.002-.556-3.091-1.824-3.573-.808-.307-.976-.644-.976-1.955 0-2.257-.585-3.504-1.983-4.227-1.041-.539-1.217-.855-1.217-2.193 0-2.299-.581-3.461-1.971-3.946-1.089-.38-1.229-.606-1.229-1.99 0-2.295-.659-3.792-2.006-4.561-1.068-.61-1.194-.887-1.194-2.624 0-2.083-.372-2.762-2.1-3.832-.921-.571-1.1-.959-1.1-2.383 0-1.822-.873-3.48-1.833-3.48-.691 0-1.367-1.579-1.367-3.193 0-1.692-.369-2.37-1.648-3.032-1.005-.52-1.152-.821-1.152-2.359 0-2.497-.548-3.65-1.971-4.146-1.173-.409-1.229-.53-1.229-2.649 0-2.28-.868-3.821-2.153-3.821-.666 0-1.034-1.219-1.042-3.451-.005-1.718-.45-2.36-1.805-2.611-.657-.121-.846-.573-1.056-2.523-.254-2.362-1.219-3.815-2.533-3.815-.322 0-.58-.885-.726-2.492-.18-1.981-.417-2.638-1.155-3.2a52.628 52.628 0 0 1-1.43-1.124c-.275-.228-.5-1.178-.5-2.111 0-1.914-.887-3.473-1.976-3.473-.822 0-1.21-1.051-1.219-3.3-.005-1.549-1.086-3.1-2.158-3.1-.645 0-1.034-1.208-1.042-3.238-.005-1.441-.696-2.389-2.105-2.889-.54-.191-.7-.704-.7-2.242 0-2.459-.618-3.899-1.802-4.196-.952-.239-1.384-1.244-1.393-3.246-.006-1.503-1.003-2.989-2.003-2.989-.752 0-.97-.774-1.299-4.6-.083-.972-.35-1.273-1.403-1.583-1.177-.346-1.304-.536-1.347-2-.092-3.124-.453-3.992-1.756-4.217-1.145-.198-1.209-.318-1.48-2.771-.367-3.325-.505-3.629-1.649-3.629-1.059 0-1.695-2.765-1.202-5.228.418-2.092 2.934-1.725 2.934.428v1.6H64v3.2h3.2v3.2h3.2v3.2H72c1.562 0 1.6.033 1.6 1.4 0 1.333.067 1.4 1.4 1.4 1.367 0 1.4.038 1.4 1.6v1.6h3.2v3.2h3.2v3.2H86v3.2h1.6c1.562 0 1.6.033 1.6 1.4 0 1.333.067 1.4 1.4 1.4 1.367 0 1.4.038 1.4 1.6v1.6h3.2v3.2h3.2v3.2h3.2v3.2h3.2v3.2h1.6c1.562 0 1.6.033 1.6 1.4 0 1.333.067 1.4 1.4 1.4 1.367 0 1.4.038 1.4 1.6v1.6h3.2v3.2h3.2v3.2h3.2v3.2h1.6c1.562 0 1.6.033 1.6 1.4 0 1.333.067 1.4 1.4 1.4 1.367 0 1.4.038 1.4 1.6v1.6h3.2v3.2h3.2v3.2h3.2v3.2h1.6c1.562 0 1.6.033 1.6 1.4 0 1.333.067 1.4 1.4 1.4 1.367 0 1.4.038 1.4 1.6v1.6h3.2v3.2h3.2v3.2h3.2v3.2h3.2v3.2h1.6c1.562 0 1.6.033 1.6 1.4 0 1.333.067 1.4 1.4 1.4 1.367 0 1.4.038 1.4 1.6v1.6h3.2v3.2h3.2v3.2h3.2v3.2h1.6c1.562 0 1.6.033 1.6 1.4 0 1.333.067 1.4 1.4 1.4 1.367 0 1.4.038 1.4 1.6v1.6h3.2v3.2h3.2v3.2h3.2v3.2h1.6c1.562 0 1.6.033 1.6 1.4 0 1.333.067 1.4 1.4 1.4 1.367 0 1.4.038 1.4 1.6 0 1.596.004 1.6 1.577 1.6 1.569 0 1.578.008 1.7 1.7.068.935.272-2.8.455-8.3.182-5.5.587-12.16.9-14.8.312-2.64.682-7.5.821-10.8.15-3.569.474-6.547.8-7.349.442-1.091.547-6.11.547-26.268v-24.919l-1.172-.258c-.645-.142-1.387-.516-1.649-.832-.262-.316-.719-.574-1.014-.574-.295 0-.721-.344-.946-.765-.226-.421-1.23-1.079-2.233-1.462-1.003-.383-1.994-1.013-2.201-1.401-.208-.388-1.324-1.01-2.481-1.383-1.274-.41-2.609-1.213-3.384-2.033-.703-.746-1.603-1.356-2-1.356-.396 0-1.417-.621-2.269-1.379-.852-.759-2.112-1.498-2.8-1.645-1.352-.286-2.649-1.234-2.654-1.938-.002-.241-1.098-.779-2.436-1.196-1.722-.537-2.555-1.029-2.855-1.687-.268-.59-1.097-1.153-2.268-1.542-1.015-.338-2.053-.945-2.307-1.351-.253-.406-1.559-1.149-2.901-1.651-1.846-.69-2.498-1.143-2.678-1.862-.158-.628-.528-.95-1.095-.95-.995-.002-3.293-1.321-4.218-2.421-.352-.417-1.359-.988-2.239-1.269-.88-.28-1.759-.869-1.953-1.309-.224-.506-1.253-1.094-2.8-1.6-1.717-.561-2.566-1.074-2.847-1.718-.269-.618-.958-1.06-2.106-1.349-1.013-.256-2.093-.891-2.661-1.566-.603-.718-1.653-1.312-2.852-1.614-1.509-.379-1.985-.71-2.327-1.615-.248-.657-.727-1.138-1.134-1.138-1.365 0-3.816-1.254-4.232-2.166-.285-.625-.993-1.066-2.203-1.371-1.074-.27-2.024-.815-2.386-1.368-.364-.555-1.49-1.198-2.848-1.626-1.738-.548-2.3-.924-2.486-1.665-.167-.668-.621-1.037-1.502-1.224-1.656-.349-3.863-1.705-3.863-2.373 0-.303-.863-.734-2.03-1.014-1.442-.346-2.122-.734-2.346-1.339-.211-.57-1.094-1.126-2.669-1.679-1.528-.536-2.494-1.133-2.75-1.701-.217-.481-1.027-1.076-1.8-1.322-.773-.246-1.968-.98-2.657-1.631-.696-.659-2.02-1.357-2.984-1.574-2.006-.45-2.764-.975-2.764-1.913 0-.455-.58-.823-1.816-1.154-1.094-.292-2.372-1.041-3.213-1.883-.769-.768-1.764-1.397-2.211-1.397-1.21 0-2.36-.736-2.363-1.514-.003-.488-.7-.903-2.417-1.438-1.821-.568-2.553-1.023-2.983-1.853-.4-.774-.996-1.181-2.007-1.37-.791-.149-2.103-.871-2.916-1.606-.813-.734-2.241-1.541-3.172-1.792-1.209-.325-1.758-.71-1.917-1.345-.17-.679-.789-1.056-2.617-1.594-1.789-.528-2.508-.958-2.849-1.706-.252-.554-.917-1.103-1.488-1.229-2.072-.457-2.27-.572-2.947-1.718-.523-.887-1.094-1.233-2.386-1.447-2.281-.378-3.018-.815-3.17-1.883-.076-.532-.453-.947-.928-1.02-1.6-.246-3.788-1.416-4.021-2.151-.152-.479-.911-.932-2.084-1.244-1.24-.329-2.036-.823-2.429-1.505-.413-.72-1.268-1.217-2.938-1.709-1.747-.515-2.446-.936-2.711-1.63-.384-1.011-1.161-1.446-2.58-1.446-.537 0-1.367-.563-2.065-1.4-.769-.922-1.647-1.487-2.57-1.653-2.006-.361-2.728-.821-2.874-1.831-.094-.651-.498-.962-1.518-1.169-1.351-.275-2.81-1.568-2.81-2.491 0-.478-3.114-3.307-4.559-4.142-1.111-.642-1.814-.627-3.141.065m-.3 8.14c0 .551 1.495 1.775 1.719 1.407.109-.179-.233-.649-.76-1.045-.528-.395-.959-.558-.959-.362m2.4 2.438c0 .93.159 1.592.354 1.472.39-.241.316-2.493-.096-2.904-.142-.142-.258.502-.258 1.432m7.333 17.096c0 .462.412.72.767.479.055-.037.505.15 1 .414 1.405.753 1.056.225-.433-.654-1.012-.596-1.334-.654-1.334-.239m2.394 4.773c.275 2.038.682 2.209.568.238-.052-.913-.245-1.661-.428-1.662-.183-.001-.246.64-.14 1.424M45.2 56.8v2H42v-4h3.2v2m3.2 6.4v2h-3.2v-4h3.2v2m3.2 6.2v2.2h-3.2v-4.4h3.2v2.2m3.2 6.4V78h-3.2v-4.4h3.2v2.2m-13.931.191c.587.178 1.307.446 1.6.596.292.15.182-.011-.245-.357-.428-.347-1.148-.615-1.6-.596-.661.028-.613.099.245.357M58 82.2v2.2h-3.2V80H58v2.2m-14.801-.402c.515.55 1.012.925 1.103.834.197-.197-1.384-1.832-1.772-1.832-.148 0 .153.449.669.998M51.6 96.424c0 .673.156 1.127.346 1.009.323-.199.147-2.233-.193-2.233-.084 0-.153.551-.153 1.224m6.8 15.914c0 .186.36.664.8 1.062.44.398.8.606.8.462 0-.144-.36-.622-.8-1.062-.44-.44-.8-.648-.8-.462m8.8 15.286c0 .673.156 1.127.346 1.009.323-.199.147-2.233-.193-2.233-.084 0-.153.551-.153 1.224m18.877 37.548c.049.645.207 1.099.352 1.01.269-.166.008-2.182-.282-2.182-.088 0-.12.528-.07 1.172m15.6 31.2c.049.645.207 1.099.352 1.01.269-.166.008-2.182-.282-2.182-.088 0-.12.528-.07 1.172m15.6 31.2c.049.645.207 1.099.352 1.01.269-.166.008-2.182-.282-2.182-.088 0-.12.528-.07 1.172m18.8 37.6c.049.645.207 1.099.352 1.01.269-.166.008-2.182-.282-2.182-.088 0-.12.528-.07 1.172m61.132 110.605c-.204.537-.425 1.482-.49 2.1-.066.617-.28 1.24-.477 1.383-.829.6.155 1.591 1.455 1.466 1.249-.121 1.311-.209 1.503-2.126.315-3.154-1.102-5.163-1.991-2.823m-4.673 4.67c.003.659 1.466 2.107 2.285 2.263.324.062.189-.202-.309-.6-.489-.39-1.134-1.049-1.433-1.463-.367-.506-.545-.572-.543-.2" stroke="none" fill="#86f4a6" fill-rule="evenodd"/><path id="SvgjsPath1000" d="M11.231 11.6c-.052 2.596.518 3.095 3.969 3.472 2.488.272 9.19 4.083 9.751 5.545.109.284 1.154.994 2.323 1.579s2.486 1.39 2.926 1.788c.44.398 1.25.859 1.8 1.023.55.165 1.63.792 2.4 1.394.77.602 2.332 1.565 3.472 2.139 1.139.575 2.178 1.218 2.309 1.429.131.212 1.989 1.408 4.128 2.659 2.14 1.251 4.341 2.61 4.891 3.021.55.411 1.72 1.131 2.6 1.6.88.468 2.41 1.428 3.4 2.132.99.704 2.467 1.587 3.283 1.96.816.374 1.593.859 1.728 1.077.135.219 1.178.869 2.317 1.445 1.14.576 2.522 1.388 3.072 1.805 2.021 1.53 6.474 4.301 7.324 4.558.482.145 1.326.674 1.876 1.175.55.501 1.81 1.316 2.8 1.811.99.495 2.25 1.242 2.8 1.66 1.862 1.414 5.39 3.608 7.6 4.727 1.21.612 2.543 1.493 2.962 1.957.419.464.959.845 1.2.847.241.001 1.698.798 3.238 1.77s3.925 2.456 5.3 3.297c5.184 3.173 7.95 4.939 9.5 6.066.88.64 2.253 1.373 3.052 1.629.798.256 1.788.837 2.2 1.293.411.455 1.46 1.191 2.331 1.635.871.444 2.423 1.37 3.449 2.058a89.456 89.456 0 0 0 3.209 2.049c1.252.745 4.883 2.943 7.934 4.8.722.44 1.878 1.198 2.569 1.685.691.487 2.278 1.428 3.527 2.091 1.249.663 2.387 1.394 2.529 1.624.142.23 1.28.961 2.529 1.624 1.249.663 2.85 1.604 3.558 2.091.708.487 1.878 1.287 2.6 1.779.722.492 2.213 1.328 3.313 1.857 1.1.529 2.671 1.476 3.492 2.105.82.629 2.679 1.864 4.131 2.744 1.452.88 3.571 2.204 4.709 2.942 1.137.738 2.889 1.759 3.893 2.269 1.004.51 2.045 1.191 2.313 1.515.269.323 1.068.82 1.775 1.104.708.284 1.809.944 2.447 1.467.637.524 2.167 1.49 3.4 2.147 1.232.658 3.32 1.903 4.64 2.768 1.32.865 3.21 2.049 4.2 2.631.99.581 2.25 1.398 2.8 1.815.55.417 1.79 1.119 2.757 1.56.966.441 2.316 1.254 3 1.806.683.552 1.769 1.421 2.413 1.93l1.17.925-.525 121.988c-.422 98.084-.426 122.287-.021 123.514 1.232 3.733-.194 7.948-2.623 7.753-1.688-.135-1.9.213-.912 1.503.184.24.201.584.038.764-.164.179.018.213.403.075s.7-.115.7.051c0 .903 1.619.33 1.843-.652.134-.591.502-1.866.816-2.833.314-.966.557-2.676.54-3.8-.396-26.337-.328-74.522.215-152.099.718-102.85.782-97.603-1.198-98.706-.431-.24-1.119-.842-1.529-1.337-.41-.495-1.011-.9-1.336-.9-.826 0-2.837-1.086-3.807-2.056-.448-.448-1.473-1.085-2.279-1.416-.806-.331-1.915-1.026-2.465-1.544-.55-.518-1.831-1.309-2.847-1.758-1.016-.449-2.089-1.108-2.384-1.464-.295-.355-1.489-1.067-2.653-1.582-1.164-.515-2.116-1.136-2.116-1.38s-1.035-.91-2.3-1.479c-1.265-.569-2.66-1.437-3.1-1.927-.44-.491-1.601-1.198-2.58-1.572-.979-.374-2.38-1.207-3.114-1.851-.734-.644-1.698-1.171-2.142-1.171-.445 0-1.294-.528-1.887-1.174-.592-.646-1.966-1.554-3.052-2.018-1.086-.464-2.199-1.164-2.472-1.554-.274-.391-1.203-.922-2.065-1.18-.862-.259-2.083-.948-2.713-1.532-.631-.585-1.912-1.401-2.847-1.815-.935-.414-1.944-1.1-2.241-1.524-.297-.425-1.487-1.211-2.645-1.747-1.157-.536-2.495-1.331-2.973-1.766-.478-.435-1.557-1.012-2.397-1.281-.84-.269-1.633-.762-1.76-1.095-.128-.333-1.305-1.112-2.615-1.732-1.311-.62-2.624-1.471-2.919-1.892-.295-.421-1.4-1.091-2.457-1.49-1.057-.398-2.446-1.16-3.087-1.692s-1.842-1.238-2.669-1.569c-.827-.33-1.606-.868-1.731-1.194-.125-.325-1.354-1.107-2.73-1.736-1.377-.629-2.715-1.493-2.972-1.92-.258-.427-.978-.882-1.6-1.011-.623-.13-2.095-.965-3.272-1.857-1.177-.891-2.386-1.621-2.686-1.621-.301 0-1.137-.515-1.86-1.144-.723-.629-2.124-1.533-3.114-2.009-2.409-1.159-6.012-3.422-7-4.397-.44-.434-1.835-1.243-3.1-1.797-1.265-.555-2.3-1.207-2.3-1.449 0-.243-.855-.847-1.9-1.343s-2.79-1.478-3.878-2.181c-1.088-.704-2.182-1.28-2.431-1.28-.248 0-.888-.464-1.421-1.032-.533-.567-1.811-1.394-2.841-1.837-1.03-.443-2.193-1.16-2.586-1.593-.392-.434-1.575-1.16-2.628-1.613C72.862 49.072 72 48.534 72 48.33c0-.205-1.154-.912-2.565-1.573-1.411-.66-2.669-1.469-2.796-1.798-.126-.329-1.176-1.048-2.334-1.598-2.502-1.187-6.035-3.316-7.705-4.643-.66-.524-2.01-1.299-3-1.721-.99-.423-2.187-1.17-2.661-1.661-.473-.491-1.551-1.181-2.394-1.533-.844-.353-1.899-.984-2.345-1.403-.445-.418-1.673-1.143-2.729-1.61-1.055-.467-2.011-1.091-2.125-1.387-.114-.296-1.22-1.018-2.459-1.604-1.239-.587-2.769-1.502-3.4-2.033-.632-.531-1.398-.966-1.704-.966-.305 0-1.171-.54-1.923-1.201-.753-.661-2.35-1.651-3.55-2.2-1.231-.564-2.361-1.392-2.593-1.901-.238-.523-1.655-1.541-3.364-2.417-4.579-2.348-5.422-2.874-5.281-3.298.164-.49-2.999-1.897-3.677-1.636-.274.105-.726-.02-1.005-.278-.391-.361-.442-.354-.225.031.155.275.176.5.046.5s-.4-.405-.599-.9c-.359-.896-.361-.895-.381.1m371.477 4.783c-.277.984-.111 1.554.324 1.118.128-.128.169-.653.092-1.167l-.14-.934-.276.983M14.547 24.966c.072.755.36 1.203.817 1.27.626.092.64.028.123-.566-.321-.369-.688-.94-.817-1.27-.129-.33-.184-.075-.123.566m6.334 11.906c.736 1.108 3.214 3.041 2.921 2.279-.119-.313-.619-.744-1.11-.959-.49-.216-1.07-.797-1.287-1.292-.217-.495-.554-.9-.749-.9-.194 0-.093.392.225.872M152.6 39.6c1.121.482 4.502.482 4.8 0 .157-.254-.823-.39-2.676-.372-2.005.019-2.673.136-2.124.372m12.081 2.34c-2.113.834 1.131 2.213 6.397 2.72l5.04.486 1.855 1.827c1.531 1.509 2.113 1.827 3.341 1.827 1.432 0 1.486.051 1.486 1.4 0 1.367.038 1.4 1.6 1.4h1.6v3.2h3.2v1.6c0 1.562.033 1.6 1.4 1.6s1.4.038 1.4 1.6v1.6h3.2v3.2h1.6c1.562 0 1.6.033 1.6 1.4s.038 1.4 1.6 1.4h1.6v3.2h3.2v3.2h3.2v1.6c0 1.562.033 1.6 1.4 1.6s1.4.038 1.4 1.6V80h3.2v3.2h1.6c1.562 0 1.6.033 1.6 1.4s.038 1.4 1.6 1.4h1.6v3.2h3.2v1.6c0 1.562.033 1.6 1.4 1.6s1.4.038 1.4 1.6v1.6h3.2v3.2h1.6c1.562 0 1.6.033 1.6 1.4s.038 1.4 1.6 1.4h1.6v3.2h3.2v1.6c0 1.562.033 1.6 1.4 1.6s1.4.038 1.4 1.6v1.6h3.2v3.2h1.6c1.562 0 1.6.033 1.6 1.4s.038 1.4 1.6 1.4h1.6v3.2h3.2v3.2h3.2v1.6c0 1.562.033 1.6 1.4 1.6s1.4.038 1.4 1.6v1.6h3.2v3.2h1.6c1.562 0 1.6.033 1.6 1.4s.038 1.4 1.6 1.4h1.6v3.2h3.2v1.6c0 1.2.16 1.6.64 1.6.568 0 .608.562.353 4.992l-.288 4.992 1.103.419c1.487.565 1.465.624 1.533-4.177l.059-4.225 1.5-.001c1.289 0 1.5-.127 1.5-.9 0-3.298 1.583-7.5 2.825-7.5.149 0 .395-1.125.545-2.5.401-3.672.904-5.246 1.972-6.175.646-.562 1.041-1.455 1.226-2.777.39-2.771 1.393-5.686 2.091-6.077.333-.187.912-1.736 1.308-3.503.391-1.742 1.176-4.068 1.745-5.168.569-1.1 1.253-3.138 1.519-4.529.267-1.392.905-3.15 1.42-3.908.514-.758 1.209-2.59 1.544-4.07.666-2.943 1.747-5.693 2.238-5.693.172 0 .61-1.395.974-3.1.907-4.25.922-4.296 1.745-5.245.401-.462 1.035-2.255 1.408-3.984.374-1.729 1.099-3.761 1.612-4.516.513-.755 1.239-2.749 1.613-4.43.379-1.703 1.109-3.639 1.648-4.369 1.637-2.22.507-3.371-4.246-4.32-1.203-.24-3.087-.62-4.187-.844-1.1-.224-4.52-.682-7.6-1.018-3.08-.335-7.073-.956-8.874-1.378-1.8-.423-5.31-.955-7.8-1.183-6.479-.592-10.171-1.167-12.996-2.021-1.359-.411-4.779-.944-7.6-1.184-6.265-.534-9.253-1.025-12.13-1.993-1.364-.46-4.555-.915-8.4-1.198-7.068-.52-10.503-1.043-12.022-1.829-.615-.317-3.635-.727-7.217-.979-7.714-.543-11.137-1.111-12.161-2.017-.726-.642-14.55-1.807-18-1.517-3.118.263-4.2-.05-4.2-1.214v-1.138l-4.863-.262c-5.98-.321-9.51-.294-10.456.079m-128.2 26.132c.736 1.108 3.214 3.041 2.921 2.279-.119-.313-.619-.744-1.11-.959-.49-.216-1.07-.797-1.287-1.292-.217-.495-.554-.9-.749-.9-.194 0-.093.392.225.872m2.89 6.328c0 .44.142.8.315.8.173 0 .314-.36.314-.8 0-.44-.141-.8-.314-.8-.173 0-.315.36-.315.8m3.204 7.508c.05.344.373.667.717.717.368.054.587-.165.533-.533a.902.902 0 0 0-.717-.717c-.368-.054-.587.165-.533.533m6.408 12.459c.111.753.733.688.847-.089.044-.3-.15-.545-.43-.545s-.468.285-.417.634m3.56 5.514c.649 1.112 2.604 2.202 2.374 1.324-.114-.438-.379-.69-.588-.561-.209.129-.759-.098-1.223-.505-.464-.406-.717-.522-.563-.258m2.738 5.791c.997 1.502 3.108 2.971 2.849 1.984-.115-.44-.427-.717-.695-.614-.629.241-1.994-1.261-1.651-1.817.146-.236-.036-.425-.409-.425-.601 0-.611.092-.094.872m2.997 7.504c.099.38.417.691.706.691.734 0 .488-1.18-.269-1.291-.407-.06-.556.144-.437.6m6.922 11.581c0 .27-.164.389-.365.265-.201-.124-.321.075-.267.443.054.368.385.711.735.762.443.065.588-.153.479-.721-.183-.95-.582-1.464-.582-.749m207.758 33.068c-.142.564-.067 1.419.165 1.9.363.75.427.604.45-1.025.03-2.097-.219-2.452-.615-.875M92.565 181.844c.056.379.412.735.791.791.907.133.685-1.178-.229-1.354-.437-.084-.629.108-.562.563M96 186.586c0 .399.374.614 1.067.614 1.172 0 1.157-.071-.167-.76-.746-.388-.9-.363-.9.146m1.04 1.654c-.368.96-.275 1.226.197.56.319-.452.474-.476.627-.1.238.588.936.673.936.114 0-.763-1.5-1.252-1.76-.574m2.16 4.923c.349.247.406.427.135.431-.551.007-.49.96.072 1.109.215.057.391-.287.391-.765.001-.478-.268-.943-.598-1.034-.533-.147-.533-.118 0 .259m1.2.57c0 .693.215 1.067.614 1.067.509 0 .534-.154.146-.9-.689-1.324-.76-1.339-.76-.167m1.31 4.667c-.033.44.109.8.315.8.206 0 .375.281.375.624 0 .388-.189.513-.5.331-.275-.161-.157.098.262.576.924 1.054.854 1.053.932.01.055-.722-.885-3.141-1.219-3.141-.058 0-.132.36-.165.8m3.766 8.884c.792.875.741.879.812-.057.04-.53-.18-.755-.701-.716-.704.053-.712.109-.111.773m2.524 3.747c0 .225.216.625.48.889.328.328.34.48.037.48-.243 0-.356.33-.25.733.204.78 1.329 1.032 1.339.3.003-.238.197-.163.431.167.377.533.405.533.25 0-.095-.33-.467-.575-.826-.545-.359.03-.554-.105-.434-.299.121-.195-.061-.755-.404-1.244-.343-.49-.623-.706-.623-.481m3.6 6.755c0 .399.374.614 1.067.614 1.172 0 1.157-.071-.167-.76-.746-.388-.9-.363-.9.146m1.04 1.654c-.368.96-.275 1.226.197.56.319-.452.474-.476.627-.1.238.588.936.673.936.114 0-.763-1.5-1.252-1.76-.574m2.11 4.769c-.028.325-.072.889-.1 1.253-.027.364.265.708.65.764.385.057.703-.106.706-.361.004-.295.132-.266.35.078.212.333.439.388.592.142.285-.462-.839-1-1.384-.663-.2.124-.364.119-.364-.011s.375-.375.833-.545c.804-.297.797-.324-.2-.778-.855-.39-1.042-.369-1.083.121m2.577 5.291c-.003.385.192.835.434 1 .302.206.252.423-.161.694-.674.442-.386.529.557.167.558-.214.561-.36.023-1.4-.696-1.345-.844-1.425-.853-.461m1.873 1.833c0 .693.215 1.067.614 1.067.509 0 .534-.154.146-.9-.689-1.324-.76-1.339-.76-.167m1.876 7.151c.792.875.741.879.812-.057.04-.53-.18-.755-.701-.716-.704.053-.712.109-.111.773m2.728 3.509c-.174.283-.069.65.245.852.462.298.454.418-.049.749-.421.276-.447.396-.087.4.709.008 1.031-1.008.576-1.821-.284-.506-.455-.551-.685-.18m1.028 2.674c.021.493.102.555.248.188.183-.461.276-.461.599 0 .316.45.355.445.226-.03-.234-.868-1.11-.997-1.073-.158m3.408 5.973c-.368.96-.275 1.226.197.56.319-.452.474-.476.627-.1.238.588.936.673.936.114 0-.763-1.5-1.252-1.76-.574m2.16 4.816c0 .373.109.569.241.436.133-.132.673-.077 1.2.124 1.346.511 1.195.127-.241-.616-1.105-.571-1.2-.567-1.2.056m1.04 1.584c-.368.96-.275 1.226.197.56.319-.452.474-.476.627-.1.238.588.936.673.936.114 0-.763-1.5-1.252-1.76-.574m1.872 4.454c.056.764.268 1.134.581 1.015.374-.144.385-.396.045-1.049-.666-1.282-.722-1.279-.626.034m1.472.665c.201.527.256 1.067.124 1.2-.133.132.063.241.436.241.623 0 .627-.095.056-1.2-.743-1.436-1.127-1.587-.616-.241m1.892 7.525c.792.875.741.879.812-.057.04-.53-.18-.755-.701-.716-.704.053-.712.109-.111.773m6.124 11.079c.349.247.406.427.135.431-.719.009-.354 1.327.398 1.437.367.054.67-.111.673-.366.004-.271.184-.214.431.135.377.533.405.533.25 0-.095-.33-.445-.579-.777-.553a.504.504 0 0 1-.557-.557c.026-.332-.223-.682-.553-.777-.533-.155-.533-.127 0 .25m3.2 5.893c0 .373.109.569.241.436.133-.132.673-.077 1.2.124 1.346.511 1.195.127-.241-.616-1.105-.571-1.2-.567-1.2.056m1.04 1.584c-.368.96-.275 1.226.197.56.319-.452.474-.476.627-.1.238.588.936.673.936.114 0-.763-1.5-1.252-1.76-.574m3.344 5.119c.201.527.256 1.067.124 1.2-.133.132.063.241.436.241.623 0 .627-.095.056-1.2-.743-1.436-1.127-1.587-.616-.241m-1.184-.196c.349.247.406.427.135.431-.551.007-.49.96.072 1.109.215.057.391-.287.391-.765.001-.478-.268-.943-.598-1.034-.533-.147-.533-.118 0 .259m2.51 5.237c-.033.44.109.8.315.8.206 0 .375.281.375.624 0 .388-.189.513-.5.331-.275-.161-.157.098.262.576.924 1.054.854 1.053.932.01.055-.722-.885-3.141-1.219-3.141-.058 0-.132.36-.165.8m3.766 8.884c.792.875.741.879.812-.057.04-.53-.18-.755-.701-.716-.704.053-.712.109-.111.773m2.645 3.434c-.006.375.166.907.383 1.182.261.332.255.5-.018.5-.226 0-.325.33-.219.733.204.78 1.329 1.032 1.339.3.003-.238.179-.163.389.167.284.444.36.273.294-.661-.049-.694-.208-1.188-.353-1.099-.521.321-1.578-.354-1.376-.879.113-.294.063-.623-.111-.731-.174-.107-.321.112-.328.488m3.252 7.108c.021 1.017.178 1.258.748 1.15.572-.11.67.044.474.743-.174.618-.135.719.129.338.263-.379.458-.409.65-.1.495.801 1.019.463.931-.601-.056-.671-.413-1.169-.996-1.391-.5-.19-.909-.459-.909-.598 0-.139.279-.145.621-.014.341.131.524.081.406-.11-.672-1.087-2.081-.687-2.054.583m3.187 6.232c.102 1.847 1.424 3.499 1.446 1.807.004-.295.132-.266.35.078.265.417.414.43.645.055.168-.272.058-.642-.25-.837-.303-.192-.382-.352-.175-.355.208-.003.028-.285-.4-.627-.747-.597-.738-.611.224-.374.771.191.863.151.4-.173-.33-.231-.926-.423-1.324-.426-.398-.003-.62-.174-.493-.378a.447.447 0 0 0-.154-.61c-.231-.143-.338.589-.269 1.84m2.75 5.548c-.033.428.129.894.358 1.036.272.168.228.389-.125.634-.381.264-.28.303.338.129.712-.199.853-.101.735.512-.118.612.041.723.819.574.531-.101.965-.233.965-.292 0-.357-1.044-2.032-1.258-2.017-.142.01-.599-.291-1.016-.668-.719-.651-.761-.646-.816.092m3.648 4.681c.579.148.633.271.228.522-.291.18-.572.612-.623.961-.051.349.051.545.227.436.176-.108.542.071.814.398.272.328.382.619.245.646-.137.028-.429.095-.649.15-.22.055-.518.123-.662.15-.144.028.065.411.464.852.695.768 1.14.755 1.248-.035.028-.202.072-.479.1-.616.028-.137.32-.025.65.249.489.406.6.384.6-.115 0-.338-.537-1.066-1.194-1.618-.668-.563-.989-1.073-.729-1.159.673-.225 0-1.116-.801-1.062-.552.038-.537.082.082.241m2.878 7.564c-.137.358-.059.88.174 1.161.304.366.278.577-.093.745-.284.13-.127.14.35.023.735-.18.836-.073.665.704-.146.665-.096.767.185.371.326-.461.419-.461.599 0 .116.3.183-.017.148-.704-.038-.735-.248-1.178-.511-1.077-.247.094-.547-.209-.669-.674-.194-.741-.139-.781.447-.323.6.469.612.45.12-.177-.684-.873-1.094-.887-1.415-.049m3.463 7.923c.276.298.655.448.844.334.188-.115.222.219.074.742-.184.65-.151.779.107.407.263-.379.458-.409.65-.1.482.781 1.02.474.936-.535-.067-.808-.183-.895-.67-.5-.476.385-.546.362-.366-.122.162-.436-.09-.623-.926-.684-.949-.069-1.062.011-.649.458m2.819 5.168c.068 1.465.206 1.745.803 1.632.572-.108.67.046.474.745-.174.618-.135.719.129.338.263-.379.458-.409.65-.1.495.801 1.019.463.931-.601-.056-.671-.413-1.169-.996-1.391-.5-.19-.909-.459-.909-.598 0-.139.279-.145.621-.014.356.136.516.069.376-.158-.134-.217-.604-.395-1.044-.395-.44 0-.697-.168-.57-.372a.45.45 0 0 0-.159-.613c-.233-.144-.356.466-.306 1.527m3.153 6.556c.06.785.27 1.146.595 1.021.322-.123.449.085.353.582-.121.63.032.74.816.59.531-.101.965-.221.965-.266 0-.431-1.572-3.086-1.584-2.676-.013.447-.13.455-.627.042-.527-.437-.598-.34-.518.707m2.862 5.523c0 .299.13.464.288.366.159-.098.511.09.783.417.272.328.382.619.245.646-.137.028-.429.095-.649.15-.22.055-.518.123-.662.15-.144.028.065.411.464.852.695.768 1.14.755 1.248-.035.028-.202.073-.479.1-.616.028-.137.32-.025.65.249 1.02.847.738-.536-.3-1.471-1.196-1.076-2.167-1.394-2.167-.708m3.369 4.845c.277.111.372.412.212.668-.419.67-.5 1.505-.124 1.272.527-.326 1.203.792 1.028 1.701-.119.618-.004.786.427.621.324-.125.493-.323.376-.441-.118-.117-.029-.437.198-.709.298-.36.13-.717-.612-1.301-.614-.483-.832-.869-.544-.965.678-.226.028-1.118-.787-1.08-.42.019-.486.108-.174.234m3.067 10.001c.053.366.398.711.764.764.817.12.843-.112.096-.86-.748-.747-.98-.721-.86.096" stroke="none" fill="#5ae39c" fill-rule="evenodd"/></g></svg><style>@media (prefers-color-scheme:light){:root{filter:none}}</style></svg>